<svg width="250" height="211" viewBox="0 0 250 211" fill="none" xmlns="http://www.w3.org/2000/svg">
<path d="M171.077 46.1737C175.827 43.951 183.23 48.4868 186.502 51.0334C190.327 53.9941 193.412 57.7624 195.785 61.6421C206.557 79.2553 212.22 100.21 203.367 119.295C200.386 125.756 195.734 131.579 189.75 136.343C186.385 139.007 179.46 141.52 178.45 145.595C178.233 146.607 178.319 147.648 178.7 148.625C180.037 152.36 184.075 154.948 187.16 157.667C201.972 170.749 191.262 191.029 175.425 199.768" stroke="#CCDDE2" stroke-width="1.25552" stroke-miterlimit="10"/>
<path d="M54.918 114.852C59.543 110.72 65.453 107.927 71.3955 105.358C77.8305 102.576 84.163 99.7748 90.013 96.1621C93.5745 93.9674 96.944 91.5605 100.095 88.96" stroke="#CCDDE2" stroke-width="1.25552" stroke-miterlimit="10"/>
<path d="M47.4097 167.189C41.4997 154.347 39.9997 139.627 46.1647 126.8" stroke="#CCDDE2" stroke-width="1.25552" stroke-miterlimit="10"/>
<path d="M124.853 34.4359V20.6707C124.853 19.7226 124.405 18.8134 123.608 18.143C122.811 17.4726 121.73 17.0959 120.603 17.0959H66.4102C65.2829 17.0959 64.2019 17.4726 63.4049 18.143C62.6079 18.8134 62.1602 19.7226 62.1602 20.6707V85.3998C62.1647 86.3453 62.6144 87.2508 63.4109 87.918C64.2077 88.5852 65.2859 88.9599 66.4102 88.9599H120.61C121.136 88.9633 121.658 88.879 122.145 88.7118" stroke="black" stroke-width="1.25552" stroke-linecap="round" stroke-linejoin="round"/>
<path d="M118.882 19.283H68.1398C65.8933 19.283 64.0723 20.8147 64.0723 22.7042V83.3643C64.0723 85.2539 65.8933 86.7856 68.1398 86.7856H118.882C121.129 86.7856 122.95 85.2539 122.95 83.3643V22.7042C122.95 20.8147 121.129 19.283 118.882 19.283Z" fill="#547373"/>
<path d="M118.092 24.5063H69.5721C68.4484 24.5063 67.5371 25.2726 67.5371 26.218V35.4326C67.5371 36.378 68.4484 37.1443 69.5721 37.1443H118.092C119.216 37.1443 120.127 36.378 120.127 35.4326V26.218C120.127 25.2726 119.216 24.5063 118.092 24.5063Z" fill="#547373"/>
<path d="M93.5101 29.8306C94.3691 29.8306 95.0651 29.245 95.0651 28.5227C95.0651 27.8004 94.3691 27.2147 93.5101 27.2147C92.6513 27.2147 91.9551 27.8004 91.9551 28.5227C91.9551 29.245 92.6513 29.8306 93.5101 29.8306Z" fill="#D7E8F0"/>
<path d="M89.168 34.4358C89.168 33.467 89.6255 32.538 90.4397 31.8529C91.2542 31.168 92.3587 30.7832 93.5105 30.7832C94.6622 30.7832 95.7667 31.168 96.581 31.8529C97.3955 32.538 97.853 33.467 97.853 34.4358H89.168Z" fill="#D7E8F0"/>
<path d="M93.8272 50.6885C92.1705 50.6876 90.5505 51.1002 89.1725 51.8738C87.7945 52.6477 86.7202 53.7479 86.0857 55.0352C85.4512 56.3226 85.285 57.7392 85.608 59.1061C85.931 60.4731 86.7287 61.7287 87.9002 62.7141C89.0717 63.6995 90.5645 64.3705 92.1895 64.6422C93.8147 64.9138 95.499 64.774 97.0295 64.2403C98.56 63.7066 99.868 62.803 100.788 61.644C101.708 60.4849 102.198 59.1223 102.197 57.7287C102.196 55.8616 101.314 54.0713 99.745 52.7511C98.1755 51.431 96.047 50.6889 93.8272 50.6885ZM93.8272 63.0699C93.503 63.0699 93.192 62.9616 92.9627 62.7688C92.7335 62.5757 92.6047 62.3143 92.6047 62.0416C92.6047 61.7689 92.7335 61.5073 92.9627 61.3144C93.192 61.1216 93.503 61.0133 93.8272 61.0133C94.1515 61.0133 94.4625 61.1216 94.6917 61.3144C94.921 61.5073 95.0497 61.7689 95.0497 62.0416C95.0497 62.3143 94.921 62.5757 94.6917 62.7688C94.4625 62.9616 94.1515 63.0699 93.8272 63.0699ZM95.3772 55.1528C95.1147 56.6794 94.8922 58.2881 94.3597 59.779C94.2297 60.1322 93.4322 60.1322 93.3022 59.779C92.9197 58.6624 92.6257 57.5258 92.4222 56.3766C92.2597 55.5355 91.6722 54.1897 92.2347 53.3738C92.7197 52.6504 94.0972 52.56 94.8922 52.9385C95.8772 53.4116 95.4997 54.3936 95.3772 55.1528Z" fill="#D7E8F0"/>
<path d="M93.828 63.0699C94.5032 63.0699 95.0505 62.6096 95.0505 62.0416C95.0505 61.4738 94.5032 61.0133 93.828 61.0133C93.1527 61.0133 92.6055 61.4738 92.6055 62.0416C92.6055 62.6096 93.1527 63.0699 93.828 63.0699Z" fill="white"/>
<path d="M95.3771 55.1528C95.1146 56.6794 94.8921 58.2881 94.3596 59.779C94.2296 60.1322 93.4321 60.1322 93.3021 59.779C92.9196 58.6626 92.6256 57.526 92.4221 56.3766C92.2596 55.5355 91.6721 54.1897 92.2346 53.3738C92.7196 52.6504 94.0971 52.56 94.8921 52.9385C95.8771 53.4116 95.4996 54.3936 95.3771 55.1528Z" fill="white"/>
<path d="M72.7979 42.7882H113.688" stroke="white" stroke-width="1.25552" stroke-miterlimit="10"/>
<path d="M72.7979 46.1718H113.688" stroke="white" stroke-width="1.25552" stroke-miterlimit="10"/>
<path d="M72.7979 67.9736H113.688" stroke="white" stroke-width="1.25552" stroke-miterlimit="10"/>
<path d="M123.642 76.6984C123.797 76.7993 124.067 34.2844 124.067 34.2844L108.685 29.2839C108.685 29.2839 97.2498 52.8587 97.9423 53.0963L101.03 54.1477C101.03 54.1477 101.792 53.6409 103.56 57.3019C105.327 60.9629 118.067 73.092 123.642 76.6984Z" fill="white"/>
<path d="M82.2949 71.1764H104.19" stroke="white" stroke-width="1.25552" stroke-miterlimit="10"/>
<path d="M185.195 95.8276C184.995 97.6613 182.305 118.694 184.913 122.8C185.858 124.287 176.478 122.864 175.913 122.754C167.413 121.072 159.453 117.97 152.003 114.198C144.553 110.425 137.97 105.461 130.203 102.115C128.768 101.497 125.59 100.143 126.53 98.3699C128.13 95.3503 130.095 91.1825 130.25 87.4962L130.203 82.6597C130.203 82.6597 129.068 79.6233 132.77 82.2833C136.473 84.9434 153.415 91.9563 164.383 83.831C175.35 75.7057 176 69.2795 176 69.2795C176 69.2795 168.978 54.8247 148.985 63.6671L156.048 48.3165C156.048 48.3165 155.08 47.284 158.14 47.4753C161.2 47.6667 166.875 46.3945 167.578 41.6779C167.578 41.6779 167.633 40.1386 170.87 43.0489C174.108 45.9592 189.408 57.3249 185.195 95.8276Z" fill="#2E2E2E"/>
<path d="M145.89 41.3773C147.605 40.3192 149.526 39.5201 151.567 39.0159" stroke="black" stroke-width="1.25552" stroke-miterlimit="10"/>
<path d="M138.29 113.146L124.54 154.959L112.04 192.982L104.08 193.613C102.255 193.755 100.559 194.464 99.3234 195.603C98.0876 196.741 97.4019 198.227 97.4004 199.768H122.018L139.848 173.92L153.11 154.69L173.845 124.619C174.445 123.743 175.028 122.866 175.595 121.97C175.605 121.96 175.61 121.947 175.61 121.934" stroke="black" stroke-width="1.25552" stroke-miterlimit="10"/>
<path d="M184.685 99.0428C184.872 98.0208 185.037 96.9989 185.185 95.9706C185.185 95.9222 185.185 95.8802 185.2 95.8318C186.041 89.6045 186.221 83.3265 185.735 77.0725C185.738 77.0544 185.738 77.0359 185.735 77.0179C185.185 70.211 183.7 63.0614 180.735 56.0906C179.874 54.0801 178.809 52.1354 177.552 50.2784C177.46 50.1249 177.355 49.9735 177.24 49.8221C176.845 49.2417 176.42 48.676 175.99 48.1167C175.407 47.3786 174.79 46.6615 174.142 45.9781C173.177 44.9404 172.106 43.975 170.942 43.093C170.935 43.0907 170.928 43.0872 170.922 43.0825C170.917 43.0777 170.913 43.072 170.91 43.0657C170.045 42.4216 169.126 41.8313 168.16 41.2993C167.98 41.1963 167.8 41.0996 167.617 41.0028C167.589 40.9845 167.559 40.9683 167.527 40.9545" stroke="black" stroke-width="1.25552" stroke-miterlimit="10"/>
<path d="M153.11 154.69L172.445 199.768H144.545C144.545 198.303 145.177 196.889 146.324 195.787C147.471 194.685 149.054 193.971 150.78 193.777L156.853 193.094C156.853 193.094 148.688 184.052 139.853 173.918" stroke="black" stroke-width="1.25552" stroke-miterlimit="10"/>
<path d="M156.54 47.2503L148.16 65.4524C147.907 66.0018 147.526 66.5036 147.04 66.9281C146.555 67.3529 145.973 67.6919 145.33 67.9257C144.687 68.1595 143.995 68.2836 143.295 68.2903C142.594 68.2971 141.899 68.1867 141.25 67.9652L121.4 61.2068C121.39 61.1841 121.382 61.1609 121.375 61.1374C121.125 60.2962 118.56 52.234 115.45 52.234C113.062 52.234 114.2 56.2105 115.2 58.4605C115.315 58.7023 115.422 58.9294 115.52 59.1229L115.365 59.0682L99.8223 53.7396L109.625 32.0049L128.762 38.2229L156.54 47.2503Z" fill="#D7E8F0"/>
<path d="M115.515 59.123C114.472 57.1148 112.812 52.2341 115.452 52.2341C118.562 52.2341 121.125 60.3027 121.377 61.1375L121.402 61.2069L141.25 67.9674C141.9 68.1885 142.596 68.2984 143.297 68.2911C143.999 68.2835 144.691 68.1588 145.335 67.9239C145.978 67.689 146.559 67.3488 147.045 66.923C147.53 66.4974 147.91 65.9946 148.162 65.4441L157.5 45.1518L127.82 35.502L108.685 29.2839L97.9346 53.0963L115.515 59.123Z" stroke="black" stroke-width="1.25552" stroke-miterlimit="10"/>
<path d="M177.037 58.6118C177.632 67.3386 175.315 78.5024 162.087 85.0738C142.52 94.8056 116.622 72.7575 107.035 62.0584C105.451 60.3013 104.113 58.3961 103.047 56.3807C102.724 55.7943 102.454 55.1884 102.237 54.5681" stroke="black" stroke-width="1.25552" stroke-miterlimit="10"/>
<path d="M130.03 80.7756C130.03 80.7756 131.53 89.9671 126.905 97.7812L126.925 97.7601C126.925 97.7601 126.925 97.7748 126.91 97.7812C119.81 108.983 109.645 126.853 115.315 139.838C117.242 144.254 120.565 149.511 124.537 154.961" stroke="black" stroke-width="1.25552" stroke-miterlimit="10"/>
<path d="M164.458 27.5112L164.473 27.5701C164.593 28.8013 164.127 30.0222 163.177 30.9643C162.227 31.9063 160.871 32.4926 159.408 32.5937C158.471 32.6621 157.529 32.5237 156.675 32.1921C156.431 32.1048 156.196 32.0001 155.973 31.8788C155.881 31.8254 155.807 31.7541 155.755 31.6712C155.704 31.5882 155.677 31.4961 155.677 31.4025C155.677 31.3089 155.704 31.2168 155.755 31.134C155.807 31.0509 155.881 30.9796 155.973 30.9262C157.048 30.2743 158.03 29.3659 158.31 28.3019C158.394 27.9747 158.401 27.6368 158.33 27.3073C158.254 26.8873 158.048 26.4918 157.733 26.1597C157.418 25.8277 157.005 25.5707 156.535 25.4147C156.388 25.3781 156.236 25.3575 156.083 25.3537C155.65 25.3243 155.083 25.3706 154.97 25.6397C155.522 24.3349 155.545 22.913 155.035 21.596C154.718 20.7812 154.184 20.0382 153.473 19.4238C153.505 19.6618 153.475 19.9029 153.383 20.1299C153.292 20.3569 153.143 20.5642 152.946 20.7371C152.749 20.91 152.509 21.0442 152.243 21.1302C151.977 21.216 151.692 21.2518 151.408 21.2343C149.205 21.1712 148.79 19.4049 148.79 19.4049C148.79 19.4049 148.79 19.4259 148.79 19.4385C147.83 21.4509 145.04 21.5056 143.04 20.6119C142.331 20.3058 141.708 19.8756 141.213 19.3502C140.645 17.2873 142.668 15.2939 145 15.0079C145.05 13.6957 146.188 12.291 147.723 12.1838C148.257 12.1453 148.795 12.2283 149.278 12.4239C149.762 12.6196 150.174 12.9208 150.473 13.2962C150.515 13.353 150.563 13.414 150.6 13.477C151.228 12.7116 152.255 11.8726 153.35 11.7948C154.11 11.7499 154.867 11.9026 155.52 12.2321C156.173 12.5616 156.69 13.052 157 13.6368C157 13.5464 157.963 13.1763 158.06 13.1427C158.959 12.8552 159.946 12.8275 160.866 13.0639C161.786 13.3004 162.586 13.7875 163.14 14.4485C163.196 14.6313 163.233 14.8177 163.25 15.0058C163.305 15.5682 163.202 16.1336 162.95 16.6565C163.305 16.7417 163.637 16.8846 163.928 17.0771C164.556 17.4638 164.977 18.0434 165.1 18.6899C165.113 18.7551 165.12 18.8203 165.125 18.8855C165.175 19.3782 165.05 19.8723 164.765 20.3049C165.504 20.4825 166.176 20.8194 166.713 21.2822C167.25 21.7451 167.634 22.3179 167.828 22.9439C167.889 23.151 167.93 23.3621 167.95 23.5747C168.035 24.4758 167.728 25.372 167.085 26.0964C166.443 26.8207 165.509 27.3237 164.458 27.5112Z" fill="#547373"/>
<path d="M164.457 27.5113L164.472 27.5701C164.593 28.8013 164.127 30.0222 163.177 30.9643C162.227 31.9064 160.871 32.4926 159.407 32.5938C158.47 32.6621 157.529 32.5238 156.675 32.1921C157.75 31.5403 158.732 30.6298 159.01 29.5657C159.108 29.1702 159.097 28.7608 158.978 28.3692C158.859 27.9777 158.635 27.6145 158.322 27.3073C158.246 26.8876 158.04 26.4918 157.725 26.1598C157.41 25.8277 156.997 25.5708 156.527 25.4148C156.38 25.3782 156.228 25.3576 156.075 25.3538C156.223 24.0387 155.855 22.7187 155.027 21.596C154.71 20.7813 154.176 20.0382 153.465 19.4239C153.497 19.6619 153.467 19.903 153.376 20.13C153.285 20.357 153.135 20.5643 152.938 20.7372C152.741 20.9101 152.501 21.0443 152.235 21.1303C151.969 21.2161 151.684 21.2518 151.4 21.2343C149.197 21.1713 148.782 19.405 148.782 19.405C148.782 19.405 148.782 19.426 148.782 19.4386C147.822 21.4509 145.032 21.5056 143.032 20.612C142.323 20.3059 141.7 19.8757 141.205 19.3503C140.637 17.2874 142.66 15.2939 144.992 15.008C145.042 13.6958 146.18 12.2911 147.715 12.1839C148.25 12.1454 148.787 12.2283 149.27 12.424C149.754 12.6197 150.167 12.9209 150.465 13.2963C150.507 13.353 150.555 13.414 150.592 13.4771C151.22 12.7117 152.247 11.8726 153.342 11.7948C154.103 11.7487 154.862 11.9007 155.517 12.2303C156.171 12.5599 156.689 13.051 157 13.6369C157 13.5465 157.962 13.1764 158.06 13.1428C158.959 12.8553 159.946 12.8276 160.866 13.064C161.785 13.3004 162.585 13.7876 163.14 14.4486C163.195 14.6313 163.232 14.8178 163.25 15.0059C163.305 15.5683 163.202 16.1337 162.95 16.6566C163.305 16.7418 163.637 16.8847 163.927 17.0771C163.881 17.366 163.792 17.6487 163.66 17.9183C164.214 18.0548 164.713 18.3184 165.1 18.6795C165.112 18.7447 165.12 18.8099 165.125 18.875C165.175 19.3677 165.05 19.8618 164.765 20.2944C165.137 20.3837 165.493 20.5138 165.825 20.6814C165.771 20.9888 165.652 21.2857 165.475 21.5582C166.42 21.7819 167.249 22.2662 167.827 22.9334C167.888 23.1406 167.929 23.3517 167.95 23.5643C168.038 24.467 167.732 25.366 167.089 26.0925C166.447 26.819 165.511 27.3235 164.457 27.5113Z" fill="#547373"/>
<path d="M145.03 23.2971C145.03 23.2971 148.2 23.335 148.928 25.585" stroke="black" stroke-width="1.25552" stroke-miterlimit="10"/>
<path d="M144.212 30.0389C143.491 30.1886 142.742 30.2193 142.007 30.1293C141.869 30.1093 141.739 30.0616 141.627 29.9901C141.516 29.9184 141.427 29.8252 141.367 29.7184C141.308 29.6116 141.281 29.4942 141.287 29.3765C141.294 29.2587 141.334 29.1439 141.405 29.0421C142.065 28.1022 142.745 27.1727 143.485 26.279C143.601 26.1653 143.672 26.0244 143.69 25.8753C143.69 25.8753 143.385 23.0932 144.052 20.9589" stroke="black" stroke-width="1.25552" stroke-miterlimit="10"/>
<path d="M146.707 25.6645C146.774 25.2161 146.46 24.8139 146.007 24.7659C145.554 24.718 145.132 25.0424 145.065 25.4906C144.998 25.9389 145.311 26.3411 145.764 26.3891C146.218 26.437 146.64 26.1126 146.707 25.6645Z" fill="black"/>
<path d="M161.685 32.0027C161.752 32.5599 164.725 36.4186 167.412 40.6789C167.411 40.6861 167.411 40.693 167.412 40.7C167.462 40.7904 167.512 40.8871 167.57 40.9838" stroke="black" stroke-width="1.25552" stroke-linecap="round" stroke-linejoin="round"/>
<path d="M150.963 36.0824L151.898 41.6801" stroke="black" stroke-width="1.25552" stroke-miterlimit="10"/>
<path d="M143.067 30.1797C143.067 30.1797 144.422 35.7227 147.755 36.5617C151.087 37.4008 153.98 33.9038 153.98 33.9038" stroke="black" stroke-width="1.25552" stroke-linecap="round" stroke-linejoin="round"/>
<path d="M143.978 32.6799C144.42 32.8976 144.921 33.0189 145.433 33.0328C145.946 33.0467 146.454 32.9529 146.913 32.7598" stroke="black" stroke-width="1.25552" stroke-linecap="round" stroke-linejoin="round"/>
<path d="M150.235 13.2245C150.195 12.7945 150.023 12.3807 149.735 12.0238C149.369 11.5509 148.825 11.195 148.19 11.0129C147.554 10.8308 146.865 10.833 146.232 11.0193C145.598 11.2055 145.058 11.5649 144.696 12.0402C144.334 12.5154 144.172 13.079 144.235 13.6409" stroke="black" stroke-width="1.25552" stroke-miterlimit="10" stroke-linecap="round"/>
<path d="M148.945 17.0517C148.882 16.4443 148.645 15.8589 148.253 15.346C147.861 14.8331 147.326 14.4081 146.695 14.1077C143.518 12.6126 139.445 15.5166 140.583 18.3933C140.983 19.3942 141.935 20.1218 143.02 20.6055C145.02 21.4992 147.82 21.4466 148.77 19.4321L148.785 19.4005C148.785 19.4005 149.2 21.1648 151.403 21.23C151.687 21.2468 151.973 21.2109 152.239 21.1249C152.505 21.0387 152.745 20.9043 152.943 20.7314C153.14 20.5584 153.29 20.3511 153.382 20.124C153.473 19.897 153.504 19.6557 153.473 19.4174C155.368 21.0576 155.863 23.5095 154.973 25.6354C155.135 25.2527 156.223 25.3221 156.538 25.4104C157.893 25.8079 158.615 27.1558 158.315 28.2997C158.033 29.37 157.05 30.2743 155.98 30.9303C155.889 30.9835 155.815 31.0546 155.763 31.1373C155.712 31.2201 155.685 31.3122 155.685 31.4056C155.685 31.4989 155.712 31.591 155.763 31.6737C155.815 31.7565 155.889 31.8276 155.98 31.8808C156.999 32.4315 158.206 32.683 159.413 32.5958C160.876 32.4944 162.232 31.9086 163.181 30.9669C164.131 30.0253 164.598 28.805 164.478 27.5742L164.463 27.5154C165.429 27.3452 166.299 26.9081 166.935 26.2734C167.571 25.6388 167.936 24.8433 167.972 24.0139C168.008 23.1846 167.713 22.3689 167.133 21.6969C166.554 21.0251 165.724 20.5357 164.775 20.3069C165.06 19.8743 165.185 19.3802 165.135 18.8875C165.067 18.2191 164.686 17.6007 164.077 17.1673C163.468 16.7339 162.68 16.5208 161.885 16.5744" stroke="black" stroke-width="1.25552" stroke-linecap="round" stroke-linejoin="round"/>
<path d="M150.107 11.9229C150.707 11.0817 151.37 10.6107 152.607 10.5245C153.375 10.4717 154.143 10.6221 154.804 10.9547C155.466 11.2872 155.987 11.7853 156.295 12.3792C156.252 12.2972 157.257 11.9123 157.36 11.8787C157.761 11.7498 158.182 11.6719 158.61 11.6474C159.751 11.5957 160.873 11.9168 161.739 12.5437C162.606 13.1706 163.152 14.0548 163.262 15.0119C163.317 15.5743 163.215 16.1397 162.962 16.6626" stroke="black" stroke-width="1.25552" stroke-linecap="square" stroke-linejoin="round"/>
<path d="M167.412 40.6812C167.412 40.6812 169.747 47.2125 156.397 47.5658" stroke="black" stroke-width="1.25552" stroke-miterlimit="10"/>
<path d="M98.0001 106.119C97.9776 101.343 103.558 100.059 106.23 100.101C122.793 100.366 125.29 77.8361 125.29 77.8361" stroke="black" stroke-width="1.25552" stroke-linecap="round" stroke-linejoin="round"/>
<path d="M184.685 99.043C184.685 99.043 182.73 115.264 184.685 120.723C186.64 126.182 175.397 121.899 175.397 121.899" stroke="black" stroke-width="1.25552" stroke-miterlimit="10"/>
<path d="M72.6772 111.269H59.6797" stroke="black" stroke-width="1.25552" stroke-linecap="round" stroke-linejoin="round"/>
<path d="M119.248 111.269H94.3779" stroke="black" stroke-width="1.25552" stroke-linecap="round" stroke-linejoin="round"/>
<path d="M90.8104 111.269H76.1279" stroke="black" stroke-width="1.25552" stroke-linecap="round" stroke-linejoin="round"/>
<path d="M90.4325 106.119H75.915" stroke="black" stroke-width="1.25552" stroke-linecap="round" stroke-linejoin="round"/>
<path d="M102 106.119H94.1621" stroke="black" stroke-width="1.25552" stroke-linecap="round" stroke-linejoin="round"/>
<path d="M121.923 106.119H106.785" stroke="black" stroke-width="1.25552" stroke-linecap="round" stroke-linejoin="round"/>
<path d="M72.2872 106.119H69.7197" stroke="black" stroke-width="1.25552" stroke-linecap="round" stroke-linejoin="round"/>
<path d="M89.9521 105.656H93.3097C93.3097 105.656 97.1572 108.712 93.3097 112.209V114.652H89.9521" stroke="black" stroke-width="1.25552" stroke-linecap="round" stroke-linejoin="round"/>
<path d="M75.168 105.656C75.168 105.656 79.0155 108.712 75.168 112.209V114.652" stroke="black" stroke-width="1.25552" stroke-linecap="round" stroke-linejoin="round"/>
<path d="M75.1671 114.652H71.8096V112.209C75.6596 108.712 71.8096 105.656 71.8096 105.656H75.1671" stroke="black" stroke-width="1.25552" stroke-linecap="round" stroke-linejoin="round"/>
<path d="M89.9521 105.656C89.9521 105.656 93.8021 108.712 89.9521 112.209V114.652" stroke="black" stroke-width="1.25552" stroke-linecap="round" stroke-linejoin="round"/>
<path d="M71.8096 112.209H75.1671" stroke="black" stroke-width="1.25552" stroke-linecap="round" stroke-linejoin="round"/>
<path d="M89.9521 112.209H93.3096" stroke="black" stroke-width="1.25552" stroke-linecap="round" stroke-linejoin="round"/>
<path d="M102.895 104.559C102.466 105.019 102.161 105.551 102 106.119C101.788 106.958 101.708 107.817 101.763 108.674C101.778 109.515 101.903 110.377 102.853 110.819C104.28 111.49 105.995 110.531 106.07 109.155C106.152 108.122 106.392 107.101 106.785 106.119C106.8 106.071 106.818 106.029 106.833 105.989" stroke="black" stroke-width="1.25552" stroke-linecap="round" stroke-linejoin="round"/>
<path d="M106.832 105.982C108.022 105.772 109.795 105.223 110.697 103.808" stroke="black" stroke-width="1.25552" stroke-linecap="round" stroke-linejoin="round"/>
<path d="M98.7129 111.269C98.7129 111.269 99.6479 113.342 102 113.594C104.353 113.847 102.865 111.269 102.865 111.269C102.865 111.269 103.84 113.086 105.02 113.146C106.2 113.207 107.22 112.305 106.813 111.269C106.813 111.269 107.173 112.936 108.918 112.753C110.663 112.57 109.943 111.269 109.943 111.269" stroke="black" stroke-width="1.25552" stroke-linecap="round" stroke-linejoin="round"/>
<g opacity="0.54">
<path opacity="0.54" d="M71.8772 140.803L70.1897 161.301C69.2747 162.693 68.2447 163.926 67.3272 164.687C67.2047 164.649 67.0772 164.611 66.9597 164.565C66.7347 164.5 66.5122 164.424 66.2997 164.355C62.8797 163.093 60.2997 160.744 59.5247 158.092C58.8447 155.76 59.4597 153.241 58.1397 151.05C56.5297 148.352 52.1397 146.659 51.6122 143.612C51.1122 140.763 54.1597 138.145 53.6672 135.357C53.0972 132.202 48.4922 130.327 47.6322 127.242C47.0947 125.324 47.5747 123.124 47.3822 121.144C47.1544 118.937 46.7104 116.749 46.0547 114.604C52.8522 114.183 59.7722 117.338 61.9747 121.852C63.7747 125.547 62.6897 129.864 65.5072 133.231C67.0372 135.054 69.5872 136.416 70.9047 138.326C71.3107 138.921 71.6052 139.565 71.7772 140.235C71.7897 140.281 71.7897 140.33 71.7997 140.366C71.8122 140.441 71.8222 140.498 71.8322 140.555C71.8547 140.719 71.8772 140.803 71.8772 140.803Z" fill="#547373"/>
<path opacity="0.54" d="M71.8889 140.794H71.8765C71.8765 140.794 71.8543 140.71 71.832 140.55C71.853 140.615 71.8679 140.681 71.8765 140.748C71.8889 140.765 71.8889 140.784 71.8889 140.794Z" fill="#547373"/>
</g>
<path d="M94.3477 132.802C93.4527 135.462 88.6477 137.079 88.0652 139.806C87.5502 142.222 90.7252 144.479 90.2002 146.933C89.6427 149.567 85.0802 151.025 83.4052 153.357C82.0402 155.249 82.6777 157.417 81.9727 159.43C81.1577 161.715 78.4727 163.755 74.8852 164.836C74.6627 164.903 74.4502 164.969 74.2252 165.025C74.1027 165.053 73.9752 165.091 73.8452 165.118C72.6602 164.3 71.3077 162.862 70.2002 161.31L71.8877 140.811H71.9002C73.2077 139.88 74.7052 139.024 75.7452 137.989C76.8752 136.871 77.4002 135.649 77.7452 134.37H77.7502V134.23C78.2502 132.207 78.2877 130.091 79.4177 128.173C81.7077 124.271 88.8952 121.554 95.9727 121.911C95.3054 123.754 94.8484 125.646 94.6077 127.561C94.4027 129.256 94.9077 131.155 94.3477 132.802Z" fill="#547373"/>
<path d="M77.7499 134.213V134.353H77.7178C77.7351 134.305 77.7499 134.259 77.7499 134.213Z" fill="#547373"/>
<path d="M77.7502 134.213C77.7502 134.259 77.7277 134.305 77.7177 134.353C77.3827 135.632 76.8577 136.854 75.7177 137.972C74.6777 139.007 73.1802 139.865 71.8727 140.794C71.8727 140.794 71.8727 140.765 71.8602 140.757C71.8515 140.69 71.8365 140.624 71.8152 140.559C71.8152 140.502 71.7952 140.445 71.7827 140.37C71.7827 140.334 71.7827 140.286 71.7602 140.239C71.5882 139.569 71.294 138.925 70.8877 138.33C69.5702 136.421 67.0202 135.058 65.4902 133.235C65.4902 133.235 66.1827 123.625 72.0277 120.7C77.5802 117.935 77.7502 132.612 77.7502 134.213Z" fill="#547373"/>
<path d="M77.7499 134.213V134.353H77.7178C77.7351 134.305 77.7499 134.259 77.7499 134.213Z" fill="#547373"/>
<path d="M71.8765 140.756V140.803C71.8765 140.803 71.8543 140.719 71.832 140.559C71.853 140.624 71.8679 140.69 71.8765 140.756Z" fill="#547373"/>
<path d="M71.3578 140.805C72.6603 139.871 74.1703 139.005 75.2153 137.972C78.1453 135.062 77.0179 131.344 78.8979 128.154C81.1853 124.256 88.3978 121.539 95.4578 121.896C94.7846 123.738 94.3259 125.63 94.0879 127.547C93.8779 129.252 94.3804 131.153 93.8379 132.804C92.9379 135.462 88.1353 137.075 87.5503 139.804C87.0328 142.218 90.2154 144.474 89.6879 146.928C89.1279 149.563 84.5704 151.018 82.8904 153.35C81.5229 155.243 82.1654 157.411 81.4554 159.428C80.5954 161.858 77.6129 164.008 73.7054 165.019C73.5804 165.055 73.4554 165.09 73.3204 165.118C72.1354 164.3 70.7829 162.864 69.6729 161.31" stroke="black" stroke-width="1.25552" stroke-miterlimit="10"/>
<path d="M91.1373 124.954C80.5898 134.503 75.6373 154.637 73.6998 165.023C73.5423 165.9 73.3998 166.706 73.2773 167.425" stroke="black" stroke-width="1.25552" stroke-miterlimit="10"/>
<path d="M92.1096 173.273L87.2496 197.358C87.1348 198.019 86.7453 198.623 86.1501 199.065C85.5551 199.506 84.7928 199.755 83.9996 199.768H58.6596C57.8598 199.753 57.0926 199.499 56.4966 199.05C55.9006 198.601 55.5151 197.987 55.4096 197.32L50.9346 173.273H92.1096Z" stroke="black" stroke-width="1.25552" stroke-miterlimit="10"/>
<path d="M96.7202 170.589C96.5827 172.107 95.1527 173.277 93.4377 173.277H49.6877C47.9902 173.277 46.5727 172.133 46.4102 170.631C46.2227 168.915 47.7452 167.429 49.6877 167.429H93.4377C95.3627 167.429 96.8777 168.886 96.7202 170.589Z" stroke="black" stroke-width="1.25552" stroke-miterlimit="10"/>
<path d="M66.8077 164.691C68.6852 163.122 70.9827 159.632 72.0027 156.778C72.8402 154.425 71.3627 152.005 71.0252 149.593C70.4952 145.808 72.7277 141.751 70.3752 138.328C69.0652 136.418 66.5152 135.06 64.9852 133.231C62.1652 129.866 63.2477 125.555 61.4452 121.861C59.2502 117.337 52.3302 114.194 45.5352 114.604C46.1847 116.752 46.6244 118.941 46.8502 121.15C47.0527 123.124 46.5677 125.324 47.1002 127.248C47.9627 130.333 52.5727 132.2 53.1377 135.361C53.6377 138.155 50.5827 140.769 51.0852 143.614C51.6252 146.666 55.9977 148.352 57.6152 151.054C58.9277 153.249 58.3127 155.764 58.9952 158.094C59.8502 161.005 62.8752 163.562 66.8077 164.691Z" stroke="black" stroke-width="1.25552" stroke-miterlimit="10"/>
<path d="M49.6826 118.149C59.8076 129.21 64.5726 152.53 66.4326 164.569C66.5926 165.62 66.7351 166.569 66.8476 167.425" stroke="black" stroke-width="1.25552" stroke-miterlimit="10"/>
<path d="M64.9854 133.23C64.9854 133.23 65.6803 123.621 71.5228 120.698C77.3653 117.775 77.2503 134.16 77.2503 134.16" stroke="black" stroke-width="1.25552" stroke-miterlimit="10"/>
<path d="M71.3573 140.805C71.3573 140.805 70.1623 135.306 72.2548 129.902" stroke="black" stroke-width="1.25552" stroke-miterlimit="10"/>
<path d="M205.832 111.269H183.96" stroke="black" stroke-width="1.25552" stroke-linecap="round" stroke-linejoin="round"/>
<path d="M206.188 106.119H184.66" stroke="black" stroke-width="1.25552" stroke-linecap="round" stroke-linejoin="round"/>
<path d="M52.707 199.768H192.002" stroke="black" stroke-width="1.25552" stroke-miterlimit="10"/>
</svg>
