<svg width="250" height="237" viewBox="0 0 250 237" fill="none" xmlns="http://www.w3.org/2000/svg">
<path d="M57.5002 100.167C57.5002 100.167 44.0427 62.5541 90.9827 67.1447C137.923 71.7353 115.495 55.0873 133.233 44.7561C150.97 34.4248 203.233 66.5662 181.368 97.567C159.503 128.568 216.31 100.209 228.16 146.829C235.473 175.598 217.33 196.773 202.363 208.776" stroke="#CCDDE2" stroke-width="1.46783" stroke-miterlimit="10"/>
<path d="M206.94 172.833C203.413 153.537 190.923 136.271 170.63 130.091C165.439 128.519 160.131 127.315 154.75 126.49V126.516C154.47 128.117 153.805 129.638 152.808 130.96C150.693 133.697 147.778 135.945 144.403 137.116C140.958 138.32 136.69 138.476 133.493 136.582C131.568 135.444 129.7 133.439 129.363 131.276C128.978 128.839 130.293 126.532 132.143 124.922C116.463 125.042 101.713 127.479 89.893 130.254C90.3025 131.874 90.87 133.455 91.588 134.977C92.5925 137.098 94.0125 139.021 95.773 140.644C97.9685 138.589 99.891 136.29 101.498 133.796C103.035 134.271 104.39 135.163 105.395 136.36C106.4 137.557 107.01 139.006 107.15 140.528V140.606C107.77 146.134 102.135 150.288 97.4005 152.843C91.9305 155.814 85.833 158.038 79.843 159.887C77.373 160.652 74.163 161.304 71.5555 160.506C71.2745 160.421 71.0005 160.318 70.7355 160.197C68.1355 158.992 66.3955 156.468 65.038 154.161C61.1705 147.608 58.6555 140.465 56.9505 133.132C45.118 134.561 43.763 126.993 43.0605 125.137L32.938 151.865C32.407 153.787 32.3495 155.797 32.77 157.743C33.1905 159.689 34.0778 161.517 35.3633 163.088C36.649 164.659 38.299 165.931 40.1863 166.806C42.0735 167.68 44.1483 168.135 46.2505 168.133H88.1555L107.19 214.252L112.585 227.341H143.4C140.9 227.341 139.533 226.765 138.54 225.825C137.515 224.857 136.938 223.544 136.935 222.175C136.935 219.341 139.398 217.017 143.4 217.017H143.683C143.38 217.017 143.09 216.991 142.788 216.965C142.975 216.946 143.161 216.917 143.345 216.878C143.147 216.873 142.949 216.859 142.753 216.835C144.558 216.634 146.231 215.84 147.479 214.591C148.727 213.343 149.471 211.72 149.58 210.006C149.585 209.917 149.585 209.828 149.58 209.739V209.602C149.537 207.845 148.826 206.161 147.577 204.858C146.328 203.555 144.625 202.721 142.778 202.506C142.988 202.49 143.188 202.473 143.39 202.473C143.208 202.431 143.005 202.405 142.815 202.379C143.115 202.353 143.418 202.334 143.708 202.334L166.253 202.447L170.4 202.464H175.323C175.55 202.464 175.78 202.464 175.998 202.49L183.31 202.525L188.195 202.551C190.237 202.567 192.189 203.346 193.624 204.718C195.059 206.09 195.86 207.943 195.853 209.871C195.85 210.962 195.583 212.037 195.07 213.015C197.166 212.761 199.11 211.846 200.585 210.417C204.103 207.024 205.618 201.944 206.665 197.429C208.518 189.386 208.408 180.911 206.94 172.833ZM149.98 173.376C145.733 179.551 138.5 178.996 138.5 178.996C138.5 178.996 137.9 179.548 136.5 177.196C135.1 174.844 131.113 173.236 131.113 173.236C130.795 175.598 130.138 179.187 123.613 174.535C117.088 169.883 119.055 163.101 119.613 159.519C120.17 155.937 122.393 154.749 122.393 154.749L125.018 153.441C125.018 153.441 117.425 151.596 117.06 151.528C116.695 151.459 109.933 146.111 116.795 144.699C123.658 143.286 134.355 148.902 136.423 150.012C138.49 151.122 150.573 160.775 150.573 160.775C150.573 160.775 154.25 167.21 149.98 173.376Z" fill="#353642"/>
<path d="M56.9404 133.137C56.9404 133.137 62.6629 132.481 64.8054 128.622L62.9379 138.519C62.9379 138.519 85.7029 131.198 89.8779 130.254C89.8779 130.254 91.2229 138.446 96.5779 140.644L102.103 134.008C102.103 134.008 109.03 135.661 107.135 144.578C105.24 153.495 79.0304 160.948 74.5854 160.775C70.1404 160.603 65.3554 158.019 60.4554 144.137L56.9404 133.137Z" fill="#353642"/>
<path d="M66.2625 111.091C67.7125 113.32 69.17 115.544 70.675 117.741C71.6025 119.094 73.2925 121.023 71.495 122.437C70.91 122.861 70.2035 123.108 69.4675 123.146C68.3125 123.243 67.1 122.981 66.3975 122.043L62.8975 116.565C62.1997 115.472 61.0922 114.668 59.7952 114.311C58.498 113.955 57.1065 114.074 55.8975 114.642" stroke="black" stroke-width="1.46783" stroke-miterlimit="10"/>
<path d="M79.5009 118.307C80.4159 120.362 79.7959 121.687 78.7259 122.352C76.9759 123.436 74.6334 122.917 73.3934 121.335L66.2759 111.103" stroke="black" stroke-width="1.46783" stroke-miterlimit="10"/>
<path d="M72.288 108.116C74.878 111.091 78.1455 116.617 79.953 118.924C81.7605 121.231 84.5555 119.84 84.5555 119.84C86.8255 118.685 86.4405 116.77 85.448 114.444C83.003 108.734 79.513 104.937 75.6205 102.448C63.558 94.7404 51.183 100.427 47.5005 113.731L32.938 151.866C32.407 153.787 32.3495 155.798 32.77 157.743C33.1905 159.689 34.0778 161.518 35.3633 163.089C36.649 164.66 38.299 165.931 40.1863 166.806C42.0735 167.681 44.1483 168.135 46.2505 168.133H88.1555L112.593 227.344" stroke="black" stroke-width="1.46783" stroke-miterlimit="10"/>
<path d="M87.2504 111.825C90.2504 110.843 90.1129 106.323 85.8554 104.798C81.1529 103.112 72.8029 100.727 70.7054 100.132C70.6924 100.122 70.6766 100.116 70.6604 100.115C70.5129 100.072 70.4104 100.037 70.3304 100.021L70.2129 99.9851" stroke="black" stroke-width="1.46783" stroke-miterlimit="10"/>
<path d="M131.575 157.016C128.95 154.036 121.765 152.347 117.075 151.53C116.287 151.39 115.568 151.012 115.027 150.453C114.486 149.894 114.152 149.184 114.075 148.43C114.02 147.921 114.083 147.407 114.257 146.923C114.537 146.18 115.073 145.547 115.778 145.126C116.484 144.705 117.319 144.519 118.15 144.599C126.15 145.365 134.4 147.743 140.502 152.864C140.502 152.864 170.085 174.188 173.617 176.264C175.075 177.1 176.435 176.113 175.447 174.8L175.137 174.299C173.399 171.48 171.341 168.849 169 166.45" stroke="black" stroke-width="1.46783" stroke-miterlimit="10"/>
<path d="M132.123 124.919C94.9175 125.212 62.9375 138.516 62.9375 138.516L66.13 121.613" stroke="black" stroke-width="1.46783" stroke-miterlimit="10"/>
<path d="M189.907 216.913C189.907 216.913 185.855 216.047 184.777 219.112C183.7 222.177 182.575 227.053 190.322 227.341C198.07 227.63 193.52 226.191 193.072 223.823C192.625 221.454 189.907 216.913 189.907 216.913Z" fill="#353642"/>
<path d="M128 160.905C128 160.905 123.627 157.774 119.69 160.948C119.524 161.085 119.379 161.244 119.26 161.42" stroke="black" stroke-width="1.46783" stroke-miterlimit="10"/>
<g opacity="0.77">
<path opacity="0.77" d="M73.3779 121.323C74.6279 122.907 76.9679 123.425 78.7104 122.338C79.7679 121.677 80.3879 120.359 79.4954 118.324C79.6579 118.548 79.8054 118.747 79.9504 118.928C81.7554 121.245 84.5529 119.849 84.5529 119.849C86.8229 118.695 86.4404 116.779 85.4479 114.451C84.4766 112.145 83.2024 109.963 81.6554 107.957C82.6679 107.062 83.8704 106.158 85.1379 106.554C86.5054 106.984 86.8879 108.604 87.0429 109.955C87.1154 110.583 87.1879 111.204 87.2604 111.832L88.3554 121.08C88.7204 124.149 89.0854 127.264 89.8779 130.261C90.2874 131.881 90.8549 133.462 91.5729 134.984C92.5774 137.105 93.9974 139.028 95.7579 140.651C97.9534 138.596 99.8759 136.297 101.483 133.803C103.02 134.278 104.375 135.17 105.38 136.367C106.385 137.564 106.995 139.013 107.135 140.535V140.613C107.755 146.141 102.12 150.295 97.3854 152.85C91.9154 155.821 85.8179 158.045 79.8279 159.894C77.3579 160.659 74.1479 161.311 71.5404 160.513C71.2594 160.429 70.9854 160.325 70.7204 160.204C68.1204 158.999 66.3804 156.475 65.0229 154.168C58.5229 143.128 55.8229 130.452 54.4004 117.899C57.2454 117.528 60.0804 117.115 62.8804 116.546C62.8804 116.546 62.8804 116.565 62.8979 116.572L66.1254 121.627L66.3904 122.048C67.0904 122.992 68.3029 123.245 69.4604 123.151C70.1961 123.116 70.9031 122.869 71.4854 122.442C73.2804 121.025 71.5954 119.103 70.6654 117.75" fill="white"/>
<path opacity="0.77" d="M73.3779 121.323C74.6279 122.907 76.9679 123.425 78.7104 122.338C79.7679 121.677 80.3879 120.359 79.4954 118.324C79.6579 118.548 79.8054 118.747 79.9504 118.928C81.7554 121.245 84.5529 119.849 84.5529 119.849C86.8229 118.695 86.4404 116.779 85.4479 114.451C84.4766 112.145 83.2024 109.963 81.6554 107.957C82.6679 107.062 83.8704 106.158 85.1379 106.554C86.5054 106.984 86.8879 108.604 87.0429 109.955C87.1154 110.583 87.1879 111.204 87.2604 111.832L88.3554 121.08C88.7204 124.149 89.0854 127.264 89.8779 130.261C90.2874 131.881 90.8549 133.462 91.5729 134.984C92.5774 137.105 93.9974 139.028 95.7579 140.651C97.9534 138.596 99.8759 136.297 101.483 133.803C103.02 134.278 104.375 135.17 105.38 136.367C106.385 137.564 106.995 139.013 107.135 140.535V140.613C107.755 146.141 102.12 150.295 97.3854 152.85C91.9154 155.821 85.8179 158.045 79.8279 159.894C77.3579 160.659 74.1479 161.311 71.5404 160.513C71.2594 160.429 70.9854 160.325 70.7204 160.204C68.1204 158.999 66.3804 156.475 65.0229 154.168C58.5229 143.128 55.8229 130.452 54.4004 117.899C57.2454 117.528 60.0804 117.115 62.8804 116.546C62.8804 116.546 62.8804 116.565 62.8979 116.572L66.1254 121.627L66.3904 122.048C67.0904 122.992 68.3029 123.245 69.4604 123.151C70.1961 123.116 70.9031 122.869 71.4854 122.442C73.2804 121.025 71.5954 119.103 70.6654 117.75" fill="#547373"/>
<path opacity="0.77" d="M74.1455 122.072C75.253 123.488 77.1455 123.309 78.7105 122.338C79.6555 121.748 80.4305 121.92 79.633 120.1C79.7805 120.298 79.8005 119.627 79.9305 119.776C81.543 121.845 79.9505 118.921 79.9505 118.921C82.2005 121.606 87.098 119.077 86.2005 117.002C85.2505 114.765 84.2505 111.459 82.983 109.806C83.983 108.914 83.7905 109.046 85.063 109.757C85.405 109.964 85.691 110.244 85.899 110.574C86.1068 110.904 86.2305 111.275 86.2605 111.658C86.363 112.557 86.4655 113.419 86.568 114.298L87.543 122.563C87.8705 125.309 88.1955 128.084 88.903 130.757C89.2688 132.202 89.776 133.612 90.418 134.97C91.313 136.837 94.188 139.947 95.758 141.371C97.7105 139.541 100.051 136.176 101.483 133.94C104.233 134.738 104.113 137.222 104.308 139.936V140.007C104.863 144.94 99.833 148.645 95.618 150.928C90.733 153.58 85.2905 155.564 79.943 157.217C77.738 157.901 74.873 158.492 72.5455 157.769C72.2945 157.694 72.0498 157.602 71.813 157.493C69.493 156.416 67.938 154.166 66.7255 152.104C61.418 143.1 58.9555 132.877 57.6005 122.629C57.5013 121.862 57.7208 121.089 58.2133 120.472C58.7058 119.855 59.4328 119.443 60.2405 119.323C61.763 119.087 63.2805 118.851 64.788 118.534L64.8305 118.553L67.7105 123.066C68.338 123.904 68.4405 123.247 69.473 123.162C70.1255 123.108 71.3905 122.988 71.8955 122.589C73.498 121.328 72.593 120.806 71.763 119.599" fill="#547373"/>
</g>
<path d="M127.472 165.463C127.472 165.463 119.17 162.884 119.045 167.22" stroke="black" stroke-width="1.46783" stroke-miterlimit="10"/>
<path opacity="0.54" d="M53.1548 209.628L36.8723 170.226C36.6705 169.463 36.6555 168.667 36.8283 167.899C37.001 167.13 37.3568 166.408 37.869 165.789C38.381 165.169 39.036 164.668 39.7838 164.324C40.5318 163.979 41.3528 163.8 42.1848 163.8H106.86C108.312 163.8 109.722 164.262 110.863 165.111C112.004 165.96 112.808 167.147 113.147 168.481L130.972 207.874C131.165 208.634 131.173 209.425 130.995 210.188C130.818 210.952 130.459 211.667 129.947 212.28C129.435 212.894 128.782 213.39 128.038 213.731C127.294 214.072 126.477 214.25 125.65 214.25H59.4273C57.986 214.251 56.5858 213.796 55.4493 212.959C54.3125 212.121 53.505 210.949 53.1548 209.628Z" fill="white"/>
<path d="M130.175 172.11C130.175 172.11 131.523 173.277 131.01 174.944C130.63 176.179 129.33 176.958 128.043 176.535C123.943 175.196 120.25 172.922 119.35 169.057C118.925 167.1 118.833 165.091 119.078 163.106C119.275 161.266 119.563 159.28 120.218 157.531C121.218 154.843 124.28 152.971 127.253 154.265" stroke="black" stroke-width="1.46783" stroke-miterlimit="10"/>
<path d="M53.1548 209.628L36.8723 170.226C36.6705 169.463 36.6555 168.667 36.8283 167.899C37.001 167.13 37.3568 166.408 37.869 165.789C38.381 165.169 39.036 164.668 39.7838 164.324C40.5318 163.979 41.3528 163.8 42.1848 163.8H106.86C108.312 163.8 109.722 164.262 110.863 165.111C112.004 165.96 112.808 167.147 113.147 168.481L130.972 207.874C131.165 208.634 131.173 209.425 130.995 210.188C130.818 210.952 130.459 211.667 129.947 212.28C129.435 212.894 128.782 213.39 128.038 213.731C127.294 214.072 126.477 214.25 125.65 214.25H59.4273C57.986 214.251 56.5858 213.796 55.4493 212.959C54.3125 212.121 53.505 210.949 53.1548 209.628Z" fill="#547373"/>
<path d="M53.1548 209.628L36.8723 170.226C36.6705 169.463 36.6555 168.667 36.8283 167.899C37.001 167.13 37.3568 166.408 37.869 165.789C38.381 165.169 39.036 164.668 39.7838 164.324C40.5318 163.979 41.3528 163.8 42.1848 163.8H106.86C108.312 163.8 109.722 164.262 110.863 165.111C112.004 165.96 112.808 167.147 113.147 168.481L130.972 207.874C131.165 208.634 131.173 209.425 130.995 210.188C130.818 210.952 130.459 211.667 129.947 212.28C129.435 212.894 128.782 213.39 128.038 213.731C127.294 214.072 126.477 214.25 125.65 214.25H59.4273C57.986 214.251 56.5858 213.796 55.4493 212.959C54.3125 212.121 53.505 210.949 53.1548 209.628Z" stroke="black" stroke-width="1.46783" stroke-linecap="square" stroke-linejoin="round"/>
<path d="M55.5378 208.042L40.5153 171.676C40.3298 170.972 40.316 170.238 40.4755 169.529C40.6353 168.82 40.9638 168.154 41.4363 167.583C41.9088 167.012 42.513 166.549 43.203 166.232C43.8928 165.914 44.6503 165.748 45.4178 165.748H105.083C106.423 165.748 107.723 166.174 108.776 166.957C109.828 167.74 110.57 168.835 110.883 170.065L127.33 206.41C127.508 207.111 127.515 207.841 127.351 208.545C127.187 209.25 126.856 209.909 126.383 210.475C125.911 211.042 125.308 211.499 124.621 211.814C123.935 212.128 123.181 212.292 122.418 212.292H61.3228C59.9953 212.293 58.7053 211.876 57.6573 211.106C56.6095 210.336 55.8635 209.257 55.5378 208.042Z" fill="#547373"/>
<path d="M183.23 202.336L194.67 227.342" stroke="black" stroke-width="1.46783" stroke-miterlimit="10"/>
<path d="M237.5 227.341H12.5" stroke="black" stroke-width="1.46783" stroke-miterlimit="10"/>
<path d="M131.092 114.484C129.237 116.214 126.467 116.212 124.89 114.612" stroke="black" stroke-width="1.46783" stroke-miterlimit="10"/>
<path d="M81.6553 107.95C82.6678 107.055 83.8703 106.151 85.1378 106.547C86.5053 106.977 86.8878 108.597 87.0428 109.948C87.481 113.66 87.9185 117.368 88.3553 121.073C88.9103 125.795 89.4953 130.632 91.5728 134.972C92.5775 137.093 93.9973 139.016 95.7578 140.639" stroke="black" stroke-width="1.46783" stroke-miterlimit="10"/>
<path d="M107.135 140.611V140.533C106.996 139.011 106.385 137.562 105.38 136.365C104.375 135.168 103.02 134.276 101.483 133.801C99.876 136.295 97.9535 138.594 95.7578 140.649C90.001 146.056 82.606 149.637 74.5978 150.895C74.9828 152.343 75.7753 153.66 76.3228 155.054C76.8703 156.447 77.1428 158.06 76.4778 159.403C75.6378 161.118 73.2278 160.893 71.5528 160.513C71.5353 160.513 71.5253 160.513 71.5078 160.513" stroke="black" stroke-width="1.46783" stroke-miterlimit="10"/>
<path d="M62.8853 116.543C60.0853 117.113 57.2503 117.526 54.4053 117.897C55.8278 130.45 58.5178 143.126 65.0278 154.166C66.3853 156.473 68.1253 158.997 70.7253 160.201C70.9905 160.323 71.2645 160.426 71.5453 160.511C74.1528 161.321 77.3628 160.657 79.8328 159.892C85.8328 158.041 91.9203 155.819 97.3903 152.848C102.113 150.291 107.748 146.139 107.14 140.611C107.082 140.002 106.95 139.402 106.748 138.821" stroke="black" stroke-width="1.46783" stroke-miterlimit="10"/>
<path d="M109.705 91.5028C110.125 93.1553 111.082 94.6416 112.444 95.7524C113.805 96.8635 115.501 97.5426 117.293 97.6945C117.441 97.0127 117.764 96.3756 118.233 95.8384C120.233 93.6116 121.085 97.7889 127.483 94.7899C136.348 90.6244 139.713 93.0141 139.713 93.0141C140.008 93.2219 139.963 95.1394 140.013 95.4889C140.263 97.4796 140.488 99.4608 140.735 101.449C140.885 102.663 141.033 103.867 141.173 105.072C141.293 104.867 141.427 104.669 141.573 104.479C142.38 101.78 143.823 98.5918 146.933 99.9638C147.562 100.254 148.111 100.68 148.533 101.208C150.595 103.768 149.033 106.24 146.875 108.071C146.334 108.638 145.73 109.149 145.073 109.594C145.428 110.288 146.878 113.044 146.878 113.053C147.028 113.332 152.095 107.915 152.473 107.324C153.037 105.878 153.339 104.353 153.368 102.812C153.45 96.476 150.72 89.1012 145.288 85.467C143.94 84.5673 144.37 83.7007 144.288 82.4774C144.282 82.4113 144.255 82.3485 144.211 82.297C144.166 82.2456 144.107 82.208 144.039 82.1894C143.972 82.1707 143.9 82.1719 143.833 82.1924C143.766 82.2132 143.708 82.2524 143.665 82.3051C141.963 84.1564 137.748 83.9722 137.748 83.9722C123.118 80.5104 118.2 86.6548 115.248 87.7505C114.043 88.1817 112.717 88.2025 111.498 87.8096C111.426 88.1909 111.245 88.5463 110.975 88.8377C110.705 89.1291 110.356 89.3452 109.965 89.4625L110.04 90.1025C110.104 90.592 109.985 91.087 109.705 91.5028Z" fill="#547373"/>
<path d="M117.303 97.7039C115.511 97.5518 113.815 96.8727 112.454 95.7619C111.093 94.6511 110.135 93.1645 109.715 91.5122C109.551 90.8784 109.447 90.2319 109.405 89.5806L109.52 89.5688C109.678 89.5577 109.832 89.5258 109.98 89.4743C110.371 89.3567 110.72 89.1407 110.99 88.8493C111.26 88.5581 111.441 88.2025 111.513 87.8213C111.559 87.61 111.568 87.393 111.54 87.179L111.165 84.0525C111.165 84.0525 113.81 85.9109 116.745 84.8247C119.68 83.7384 124.608 77.594 139.245 81.0464C139.245 81.0464 142.55 81.2306 144.245 79.3792C144.288 79.3263 144.347 79.2872 144.413 79.2666C144.48 79.2458 144.552 79.2449 144.619 79.2635C144.687 79.2822 144.747 79.3197 144.791 79.371C144.835 79.4225 144.862 79.4855 144.868 79.5516C144.955 80.7772 145.435 81.6439 146.785 82.5412C152.218 86.1778 154.948 93.5502 154.863 99.8859C154.838 102.514 153.913 105.109 152.485 107.336C152.108 107.927 147.04 113.344 146.89 113.065C146.89 113.065 145.44 110.3 145.085 109.605L145 109.452L145.163 109.35C145.766 108.963 146.343 108.54 146.888 108.082C149.043 106.252 150.608 103.78 148.545 101.22C148.123 100.692 147.575 100.266 146.945 99.9756C143.825 98.6036 142.393 101.792 141.585 104.491C141.429 105.006 141.332 105.537 141.298 106.073C141.26 105.742 141.223 105.423 141.185 105.093C141.045 103.888 140.898 102.684 140.748 101.47C140.498 99.4821 140.263 97.5008 140.025 95.5101C139.988 95.1701 140.025 93.2432 139.725 93.0354C139.725 93.0354 136.358 90.6456 127.495 94.8112C121.098 97.8102 120.245 93.6304 118.245 95.8596C117.777 96.3969 117.454 97.034 117.305 97.7157C117.26 97.9346 117.23 98.1564 117.218 98.3793C117.213 98.4081 117.213 98.4376 117.218 98.4667C117.188 98.9555 117.178 99.4419 117.165 99.9189C117.118 104.521 117.653 109.329 119.565 113.603C121.89 118.784 128.043 123.894 134.44 121.479C136.44 120.721 138.233 119.5 139.873 118.203" stroke="black" stroke-width="1.46783" stroke-miterlimit="10"/>
<path d="M121.681 108.929C122.317 108.728 122.624 107.975 122.367 107.248C122.109 106.521 121.384 106.094 120.748 106.296C120.112 106.496 119.805 107.249 120.062 107.976C120.32 108.704 121.045 109.13 121.681 108.929Z" fill="black"/>
<path d="M131.199 108.642C131.836 108.441 132.143 107.688 131.885 106.961C131.627 106.233 130.903 105.807 130.266 106.008C129.63 106.209 129.323 106.962 129.581 107.689C129.838 108.416 130.563 108.843 131.199 108.642Z" fill="black"/>
<path d="M127.56 110.198C127.56 110.198 124.393 111.896 124.2 110.134C124.14 109.591 123.365 104.271 123.365 104.271C123.365 104.271 120.805 101.709 116.883 103.603" stroke="black" stroke-width="1.46783" stroke-miterlimit="10"/>
<path d="M126.848 102.781C126.848 102.781 131.963 100.368 135.348 103.846" stroke="black" stroke-width="1.46783" stroke-miterlimit="10"/>
<path d="M131.537 122.072L132.125 124.919C130.272 126.532 128.962 128.844 129.345 131.279C129.685 133.437 131.555 135.447 133.472 136.578C136.677 138.467 140.94 138.318 144.39 137.116C147.762 135.935 150.68 133.694 152.795 130.96C153.791 129.638 154.454 128.119 154.735 126.518V126.49" stroke="black" stroke-width="1.46783" stroke-miterlimit="10"/>
<path d="M132.125 124.919L133.269 130.063" stroke="black" stroke-width="1.46783" stroke-miterlimit="10"/>
<path d="M148.318 111.825L150.048 122.676C150.218 123.738 150.787 124.707 151.65 125.407C152.513 126.107 153.613 126.491 154.75 126.49C160.134 127.314 165.446 128.517 170.64 130.089C190.933 136.271 203.423 153.538 206.95 172.83C208.418 180.909 208.528 189.382 206.685 197.415C205.638 201.937 204.123 207.017 200.605 210.403C196.038 214.819 189.028 213.001 183.63 211.005C166.873 204.849 152.935 193.897 140.9 181.357C134.465 174.651 126.15 169.276 126.15 169.276" stroke="black" stroke-width="1.46783" stroke-miterlimit="10"/>
<path d="M61.0755 199.902C59.1955 199.885 57.558 198.452 57.1355 196.456C56.3005 192.532 56.0805 186.463 62.173 185.138C69.7855 183.485 75.6405 191.316 78.5105 196.265C79.4755 197.918 78.383 200.043 76.5855 200.043L61.0755 199.902Z" fill="#547373" fill-opacity="0.1"/>
<path d="M63.5882 181.806C65.2045 180.79 65.2292 178.142 63.6435 175.891C62.058 173.64 59.4625 172.639 57.8462 173.655C56.23 174.671 56.2052 177.319 57.791 179.57C59.3765 181.821 61.972 182.822 63.5882 181.806Z" fill="#547373" fill-opacity="0.1"/>
<path d="M188.693 217.043C188.575 217.06 188.443 217.076 188.328 217.102H188.283L170.5 217.015L143.818 216.885C143.715 216.885 143.615 216.885 143.515 216.885C143.317 216.88 143.12 216.866 142.923 216.842C144.731 216.644 146.407 215.85 147.655 214.599C148.904 213.349 149.646 211.722 149.75 210.006C149.756 209.917 149.756 209.828 149.75 209.739V209.602C149.743 207.923 149.124 206.298 147.996 204.999C146.869 203.701 145.302 202.809 143.56 202.473C143.378 202.431 143.178 202.405 142.985 202.379C143.288 202.353 143.588 202.334 143.88 202.334L166.423 202.447L170.573 202.464L176.17 202.49C178.087 202.655 179.869 203.49 181.169 204.83C182.469 206.171 183.192 207.921 183.198 209.739C183.198 210.082 183.171 210.425 183.115 210.764C182.849 212.495 181.934 214.077 180.536 215.225C179.139 216.372 177.352 217.007 175.5 217.015H189.045C188.265 217.015 188.483 217.015 188.693 217.043Z" fill="white"/>
<path d="M152.622 225.825C153.13 226.308 153.734 226.69 154.4 226.951C155.066 227.211 155.779 227.344 156.5 227.341H143.405C140.905 227.341 139.54 226.765 138.545 225.825C137.522 224.855 136.946 223.543 136.942 222.175C136.942 219.341 139.402 217.017 143.405 217.017H156.5C155.419 217.016 154.361 217.317 153.462 217.884C152.563 218.45 151.861 219.257 151.447 220.2C151.033 221.143 150.925 222.182 151.137 223.183C151.348 224.184 151.869 225.104 152.635 225.825H152.622Z" fill="#547373" fill-opacity="0.1"/>
<path d="M195.87 209.869C195.867 210.96 195.598 212.035 195.085 213.012C194.719 213.751 194.216 214.422 193.6 214.994C192.585 215.944 191.31 216.609 189.917 216.913C189.344 217.039 188.756 217.102 188.167 217.102C188.287 217.076 188.417 217.06 188.532 217.043C188.322 217.024 188.105 217.017 188.887 217.017H175.34C177.193 217.011 178.981 216.376 180.38 215.228C181.778 214.08 182.694 212.496 182.96 210.764C183.015 210.425 183.043 210.083 183.042 209.739C183.037 207.921 182.313 206.17 181.013 204.83C179.713 203.489 177.93 202.654 176.012 202.49L183.325 202.525L188.21 202.551C190.251 202.568 192.203 203.346 193.638 204.718C195.074 206.089 195.876 207.941 195.87 209.869Z" fill="#547373"/>
<path d="M195.87 209.867C195.855 211.796 195.031 213.641 193.578 214.998C192.126 216.355 190.163 217.112 188.12 217.105L143.64 216.887C143.343 216.887 143.045 216.866 142.745 216.838C144.62 216.637 146.352 215.794 147.613 214.467C148.873 213.141 149.575 211.424 149.585 209.642C149.595 207.86 148.912 206.136 147.666 204.797C146.42 203.458 144.698 202.598 142.825 202.379C143.123 202.349 143.421 202.335 143.72 202.336L188.2 202.553C190.243 202.567 192.197 203.344 193.634 204.714C195.072 206.085 195.876 207.938 195.87 209.867Z" stroke="black" stroke-width="1.46783" stroke-linecap="square" stroke-linejoin="round"/>
<path d="M183.037 209.737C183.033 211.666 182.22 213.515 180.776 214.879C179.332 216.243 177.375 217.011 175.332 217.015H143.685C143.386 217.013 143.087 216.997 142.79 216.968C144.664 216.757 146.391 215.905 147.644 214.573C148.897 213.241 149.589 211.52 149.589 209.738C149.589 207.956 148.897 206.236 147.644 204.903C146.391 203.571 144.664 202.719 142.79 202.509C143.088 202.483 143.388 202.464 143.685 202.464H175.332C177.374 202.468 179.33 203.236 180.774 204.598C182.218 205.961 183.031 207.809 183.037 209.737Z" stroke="black" stroke-width="1.46783" stroke-linecap="square" stroke-linejoin="round"/>
<path d="M136.942 222.177C136.942 222.854 137.083 223.525 137.358 224.151C137.632 224.776 138.035 225.345 138.542 225.823C139.542 226.768 140.9 227.341 143.402 227.341H188.885C188.102 227.341 188.315 227.327 188.527 227.308C187.196 227.16 185.969 226.556 185.079 225.61C184.189 224.664 183.697 223.443 183.697 222.177C183.697 220.911 184.189 219.69 185.079 218.744C185.969 217.798 187.196 217.194 188.527 217.046C188.315 217.027 188.102 217.012 188.885 217.012H143.402C139.397 217.015 136.942 219.338 136.942 222.177Z" stroke="black" stroke-width="1.46783" stroke-linecap="square" stroke-linejoin="round"/>
<path d="M151.018 222.177C151.021 223.546 151.598 224.857 152.623 225.825C153.647 226.793 155.036 227.338 156.485 227.341H187.893C188.103 227.341 188.315 227.327 188.528 227.308C187.197 227.16 185.97 226.556 185.079 225.61C184.189 224.664 183.697 223.443 183.697 222.177C183.697 220.911 184.189 219.69 185.079 218.744C185.97 217.798 187.197 217.194 188.528 217.046C188.315 217.027 188.103 217.012 187.893 217.012H156.485C155.036 217.016 153.648 217.561 152.623 218.529C151.599 219.497 151.022 220.808 151.018 222.177Z" stroke="black" stroke-width="1.46783" stroke-linecap="square" stroke-linejoin="round"/>
<path d="M100.105 182.774H86.0747C85.433 182.773 84.8052 182.596 84.2682 182.264C83.731 181.932 83.3077 181.459 83.0497 180.904C82.9502 180.697 82.9077 180.47 82.926 180.244C82.9445 180.017 83.0232 179.799 83.1547 179.609C83.2865 179.419 83.467 179.264 83.6795 179.157C83.892 179.051 84.1295 178.997 84.3697 179.001H99.2847C98.5822 180.118 98.9397 181.669 100.105 182.774Z" fill="#547373" fill-opacity="0.1"/>
<path d="M109.177 181.409C109.177 181.771 109.025 182.117 108.754 182.372C108.484 182.628 108.117 182.771 107.735 182.772H100.105C98.9397 181.669 98.5822 180.118 99.2847 178.994H106.022C106.664 178.994 107.291 179.17 107.828 179.5C108.366 179.83 108.79 180.301 109.05 180.854C109.131 181.03 109.174 181.218 109.177 181.409Z" fill="#547373"/>
<path d="M105.667 182.774C105.628 182.846 105.582 182.915 105.53 182.98C104.53 184.271 102.357 184.397 100.67 183.23C100.47 183.091 100.281 182.939 100.105 182.774C98.9397 181.672 98.5822 180.12 99.2847 178.996C99.3242 178.924 99.3702 178.855 99.4222 178.791C100.422 177.489 102.585 177.374 104.272 178.531C104.475 178.674 104.667 178.832 104.845 179.003C106 180.101 106.36 181.643 105.667 182.774Z" fill="white"/>
<path d="M112.705 189.729C112.702 190.09 112.548 190.436 112.276 190.691C112.005 190.946 111.637 191.089 111.255 191.089H96.5322C97.2422 189.96 96.8872 188.42 95.7197 187.311H109.55C110.192 187.311 110.82 187.487 111.358 187.819C111.895 188.151 112.319 188.623 112.577 189.178C112.659 189.352 112.703 189.539 112.705 189.729Z" fill="#547373"/>
<path d="M96.5327 191.089H89.6052C88.9639 191.089 88.3362 190.914 87.7987 190.583C87.2612 190.253 86.837 189.782 86.5777 189.228C86.496 189.055 86.4525 188.868 86.4502 188.678C86.4497 188.499 86.487 188.322 86.5592 188.157C86.6315 187.992 86.7374 187.842 86.8712 187.715C87.0049 187.589 87.164 187.489 87.3387 187.421C87.5135 187.352 87.701 187.317 87.8902 187.318H95.7202C96.8877 188.42 97.2502 189.96 96.5327 191.089Z" fill="#547373" fill-opacity="0.1"/>
<path d="M96.5329 191.089C96.5002 191.163 96.4574 191.233 96.4054 191.297C95.4054 192.595 93.2404 192.713 91.5554 191.554C91.3514 191.41 91.1591 191.252 90.9804 191.082C89.8229 189.979 89.4679 188.439 90.1604 187.303C90.2004 187.231 90.2461 187.161 90.2979 187.096C91.2979 185.804 93.4704 185.679 95.1554 186.848C95.3559 186.985 95.5449 187.138 95.7204 187.303C96.8879 188.42 97.2504 189.96 96.5329 191.089Z" fill="white"/>
<path d="M101.438 199.347H92.6225C91.9815 199.346 91.3545 199.17 90.817 198.84C90.2798 198.51 89.8553 198.039 89.595 197.486C89.4958 197.279 89.4535 197.051 89.472 196.824C89.4908 196.597 89.5695 196.379 89.7013 196.188C89.8333 195.998 90.0138 195.842 90.2263 195.735C90.4388 195.627 90.6765 195.573 90.9175 195.576H100.618C99.9225 196.707 100.28 198.244 101.438 199.347Z" fill="#547373"/>
<path d="M115.723 197.996C115.721 198.355 115.568 198.699 115.298 198.952C115.028 199.205 114.663 199.347 114.283 199.347H101.438C100.28 198.244 99.9225 196.704 100.618 195.568H112.568C113.21 195.568 113.838 195.745 114.376 196.077C114.913 196.409 115.337 196.881 115.595 197.436C115.678 197.613 115.721 197.803 115.723 197.996Z" fill="#547373" fill-opacity="0.1"/>
<path d="M107 199.347C106.96 199.419 106.914 199.489 106.863 199.555C105.863 200.853 103.7 200.971 102.013 199.812C101.81 199.668 101.619 199.51 101.44 199.34C100.283 198.237 99.9255 196.697 100.62 195.561C100.659 195.488 100.704 195.419 100.755 195.354C101.755 194.062 103.928 193.951 105.615 195.106C105.816 195.243 106.005 195.396 106.18 195.561C107.345 196.678 107.7 198.227 107 199.347Z" fill="white"/>
<path d="M40.4023 124.062L40.6218 124.121L40.5395 124.424C40.4874 124.306 40.4417 124.185 40.4023 124.062Z" fill="#353642"/>
<path d="M79.5265 142.954C82.8173 142.042 84.5465 138.282 83.3888 134.557C82.231 130.832 78.6248 128.551 75.3338 129.464C72.043 130.376 70.3138 134.136 71.4715 137.861C72.6293 141.587 76.2358 143.867 79.5265 142.954Z" fill="#547373" fill-opacity="0.1"/>
</svg>
