<svg width="250" height="205" viewBox="0 0 250 205" fill="none" xmlns="http://www.w3.org/2000/svg">
<path d="M80.2122 80.319H61.9272C61.4182 80.319 60.9142 80.2367 60.4439 80.0772C59.9739 79.9176 59.5467 79.6836 59.1872 79.3888C58.8274 79.0938 58.5422 78.7438 58.3479 78.3587C58.1537 77.9735 58.0539 77.5606 58.0547 77.144V41.1462C58.0547 40.7298 58.1549 40.3175 58.3494 39.9329C58.5442 39.5484 58.8294 39.199 59.1889 38.9046C59.5487 38.6103 59.9754 38.3769 60.4454 38.2178C60.9152 38.0588 61.4187 37.9769 61.9272 37.9773H92.1147C92.6239 37.9759 93.1287 38.0569 93.5999 38.2154C94.0709 38.374 94.4992 38.6072 94.8602 38.9016C95.2209 39.1959 95.5074 39.5458 95.7029 39.9308C95.8984 40.3161 95.9992 40.729 95.9997 41.1462V50.8555" stroke="#CCDDE2" stroke-width="1.197" stroke-miterlimit="10"/>
<path d="M91.1977 42.3396H63.2402C62.1702 42.3396 61.3027 43.0499 61.3027 43.9261V48.2004C61.3027 49.0765 62.1702 49.7869 63.2402 49.7869H91.1977C92.2677 49.7869 93.1352 49.0765 93.1352 48.2004V43.9261C93.1352 43.0499 92.2677 42.3396 91.1977 42.3396Z" stroke="#CCDDE2" stroke-width="1.197" stroke-miterlimit="10"/>
<path d="M77.022 45.4757C77.5413 45.4757 77.962 45.131 77.962 44.706C77.962 44.2808 77.5413 43.9363 77.022 43.9363C76.503 43.9363 76.082 44.2808 76.082 44.706C76.082 45.131 76.503 45.4757 77.022 45.4757Z" fill="#D7E8F0"/>
<path d="M74.3947 48.1922C74.3724 47.8988 74.4239 47.6049 74.5459 47.3283C74.6677 47.0518 74.8574 46.7985 75.1034 46.5844C75.3494 46.3703 75.6462 46.1996 75.9757 46.0829C76.3054 45.9662 76.6604 45.906 77.0197 45.906C77.3787 45.906 77.7339 45.9662 78.0634 46.0829C78.3929 46.1996 78.6897 46.3703 78.9357 46.5844C79.1817 46.7985 79.3714 47.0518 79.4934 47.3283C79.6152 47.6049 79.6667 47.8988 79.6447 48.1922H74.3947Z" fill="#D7E8F0"/>
<path d="M77.215 57.7683C76.2128 57.7683 75.233 58.0117 74.3995 58.4676C73.5663 58.9237 72.9168 59.5716 72.5333 60.3298C72.1498 61.0881 72.0493 61.9224 72.2448 62.7274C72.4403 63.5323 72.923 64.2715 73.6318 64.8518C74.3405 65.4322 75.2433 65.8274 76.2263 65.9875C77.2093 66.1476 78.2283 66.0653 79.1543 65.7513C80.0803 65.4373 80.8715 64.9054 81.4285 64.2232C81.9853 63.5407 82.2825 62.7384 82.2825 61.9177C82.2828 61.3728 82.152 60.8332 81.8975 60.3296C81.6428 59.826 81.2695 59.3685 80.799 58.983C80.3283 58.5978 79.7695 58.2922 79.1545 58.0836C78.5398 57.8752 77.8805 57.7681 77.215 57.7683ZM77.215 65.0641C77.0395 65.0403 76.8803 64.9664 76.7653 64.8555C76.6503 64.7445 76.587 64.6037 76.587 64.4582C76.587 64.3126 76.6503 64.1718 76.7653 64.0608C76.8803 63.9499 77.0395 63.876 77.215 63.8522C77.3223 63.8377 77.4323 63.8426 77.5373 63.8664C77.642 63.8901 77.7393 63.9323 77.8223 63.99C77.9053 64.0475 77.972 64.1194 78.0178 64.2002C78.0633 64.2811 78.087 64.3691 78.087 64.4582C78.087 64.5472 78.0633 64.6354 78.0178 64.7163C77.972 64.7972 77.9053 64.8688 77.8223 64.9265C77.7393 64.9841 77.642 65.0262 77.5373 65.05C77.4323 65.0739 77.3223 65.0786 77.215 65.0641ZM78.1525 60.3988C78.0318 61.3165 77.8253 62.2254 77.535 63.1173C77.5045 63.165 77.4585 63.2047 77.4025 63.2326C77.3463 63.2604 77.2818 63.2752 77.2163 63.2752C77.1505 63.2752 77.0863 63.2604 77.03 63.2326C76.9738 63.2047 76.928 63.165 76.8975 63.1173C76.6663 62.4598 76.489 61.7902 76.3675 61.1132C76.265 60.6219 75.915 59.8236 76.25 59.3446C76.545 58.9167 77.38 58.8655 77.8625 59.0887C78.455 59.365 78.2225 59.9505 78.1525 60.3988Z" fill="#D7E8F0"/>
<path d="M64.4854 53.1113H89.2378" stroke="#CCDDE2" stroke-width="1.197" stroke-miterlimit="10"/>
<path d="M64.4854 55.1072H89.2378" stroke="#CCDDE2" stroke-width="1.197" stroke-miterlimit="10"/>
<path d="M64.4854 67.9528H89.2378" stroke="#CCDDE2" stroke-width="1.197" stroke-miterlimit="10"/>
<path d="M70.2354 69.84H83.4878" stroke="#CCDDE2" stroke-width="1.197" stroke-miterlimit="10"/>
<path d="M217.403 72.6262H179.46C176.301 72.6262 173.74 74.7232 173.74 77.3099V130.372C173.74 132.959 176.301 135.056 179.46 135.056H217.403C220.562 135.056 223.123 132.959 223.123 130.372V77.3099C223.123 74.7232 220.562 72.6262 217.403 72.6262Z" fill="#547373"/>
<path d="M165.537 72.6262H139.117C135.958 72.6262 133.397 74.7232 133.397 77.3099V130.372C133.397 132.959 135.958 135.056 139.117 135.056H165.537C168.696 135.056 171.257 132.959 171.257 130.372V77.3099C171.257 74.7232 168.696 72.6262 165.537 72.6262Z" fill="#547373"/>
<path d="M135.585 166.802H222.85C224.358 166.801 225.804 166.311 226.87 165.438C227.937 164.565 228.536 163.381 228.538 162.147V73.4491C228.538 72.8374 228.391 72.2317 228.106 71.6665C227.82 71.1013 227.401 70.5879 226.873 70.1553C226.344 69.7228 225.717 69.3799 225.027 69.1459C224.337 68.912 223.597 68.7916 222.85 68.792H163.545L148.045 68.8677H148L140.163 69.1175H140.138L138.075 69.183H137.893L137.74 70.1881L137.44 72.0571C137.444 72.0606 137.445 72.0649 137.445 72.0694C137.445 72.0737 137.444 72.0782 137.44 72.0816L135 75.0417L134.5 75.6415L133.123 82.8595V82.8943C133.093 82.8841 133.063 82.8697 133.025 82.8533C132.995 82.839 132.967 82.8226 132.94 82.8042C132.477 82.5185 132.129 82.1256 131.94 81.6763C131.483 80.7264 131.373 79.4675 131.368 78.4685L131.068 83.9526V83.9731L130.65 91.2996L130.548 93.2668C130.743 92.9823 131.023 92.5729 131.348 92.0836L130.31 97.5125L130.095 101.424L129.56 111.31L129.54 111.678V111.819L129.4 114.227V114.282C129.4 114.282 129 121.347 129 121.357L128.963 122.012L128.5 124.872L127.15 132.874V162.147C127.151 162.981 127.425 163.799 127.945 164.516C128.465 165.234 129.211 165.823 130.105 166.223C131.798 166.974 133.67 166.873 135.53 166.822C136.03 166.81 136.53 166.792 137.03 166.769" fill="#547373"/>
<path d="M132.272 165.275C132.237 165.275 132.2 165.248 132.157 165.238C131.682 165.099 131.233 164.906 130.822 164.665C130.102 164.246 129.515 163.691 129.111 163.048C128.707 162.405 128.497 161.691 128.5 160.968V121.901L127.15 122.432L127.065 122.466L126.882 122.096L125.98 120.254L125.73 119.744L123.447 115.078C123.447 115.078 127.782 100.716 130.65 91.2997C131.7 87.8422 132.555 85.0499 132.915 83.877C133.025 83.5269 133.09 83.3222 133.102 83.2874C133.103 83.2792 133.103 83.271 133.102 83.2629C133.11 83.193 133.097 83.123 133.065 83.0581C133.029 82.9826 132.987 82.9093 132.937 82.8391C132.932 82.8246 132.923 82.8107 132.912 82.7982C132.615 82.384 132.281 81.9886 131.912 81.615L131.437 76.7982L131.515 76.7491L131.875 76.5136L134.335 74.9169L134.907 73.6764L136.03 71.2649L136.53 70.1902H137.72H138.025H140.177L148.132 70.1698H148.815L163.907 70.0961H221.655C222.382 70.0961 223.102 70.2134 223.774 70.4414C224.446 70.6695 225.056 71.0037 225.57 71.425C226.083 71.8463 226.491 72.3464 226.768 72.8969C227.046 73.4471 227.188 74.0369 227.187 74.6324V160.968C227.188 161.563 227.046 162.153 226.768 162.703C226.491 163.254 226.083 163.754 225.57 164.175C225.056 164.596 224.446 164.931 223.774 165.159C223.102 165.387 222.382 165.504 221.655 165.504H135.69" fill="#547373"/>
<path d="M138.05 68.9128L140.095 68.9025H140.138L147.988 68.8677H148.043L163.543 68.792H222.85C224.358 68.7924 225.805 69.2833 226.871 70.1566C227.938 71.0299 228.537 72.2141 228.538 73.4491V162.147C228.536 163.381 227.937 164.565 226.87 165.438C225.804 166.311 224.358 166.801 222.85 166.802H132.683C131.213 166.802 129.804 166.324 128.765 165.473C127.726 164.622 127.143 163.469 127.143 162.266V152.581" stroke="black" stroke-width="1.197" stroke-miterlimit="10"/>
<path d="M217.402 139.641H139.117C135.958 139.641 133.397 141.738 133.397 144.325V157.347C133.397 159.933 135.958 162.03 139.117 162.03H217.402C220.561 162.03 223.122 159.933 223.122 157.347V144.325C223.122 141.738 220.561 139.641 217.402 139.641Z" fill="white"/>
<path d="M191.52 144.628H140.95C139.88 144.628 139.013 145.338 139.013 146.214V155.778C139.013 156.654 139.88 157.365 140.95 157.365H191.52C192.59 157.365 193.458 156.654 193.458 155.778V146.214C193.458 145.338 192.59 144.628 191.52 144.628Z" fill="#547373"/>
<path d="M182.448 149.993C183.337 149.993 184.058 149.403 184.058 148.675C184.058 147.947 183.337 147.357 182.448 147.357C181.559 147.357 180.838 147.947 180.838 148.675C180.838 149.403 181.559 149.993 182.448 149.993Z" fill="white"/>
<path d="M177.952 154.636C177.952 153.659 178.426 152.722 179.27 152.031C180.114 151.34 181.259 150.951 182.452 150.951C183.645 150.951 184.79 151.34 185.634 152.031C186.478 152.722 186.952 153.659 186.952 154.636H177.952Z" fill="white"/>
<path d="M207.192 144.63C205.624 144.629 204.091 145.008 202.787 145.721C201.483 146.433 200.466 147.446 199.865 148.632C199.264 149.818 199.106 151.123 199.411 152.382C199.716 153.641 200.471 154.798 201.579 155.706C202.687 156.614 204.1 157.233 205.637 157.483C207.175 157.734 208.769 157.605 210.217 157.114C211.666 156.623 212.904 155.791 213.775 154.723C214.646 153.656 215.11 152.401 215.11 151.117C215.11 150.265 214.906 149.422 214.508 148.635C214.11 147.848 213.527 147.133 212.792 146.531C212.056 145.928 211.184 145.45 210.223 145.124C209.262 144.798 208.232 144.63 207.192 144.63ZM207.192 156.038C207.035 156.044 206.879 156.024 206.732 155.979C206.585 155.934 206.451 155.865 206.337 155.776C206.224 155.688 206.134 155.581 206.072 155.463C206.01 155.345 205.978 155.218 205.978 155.089C205.978 154.961 206.01 154.834 206.072 154.716C206.134 154.598 206.224 154.491 206.337 154.402C206.451 154.314 206.585 154.245 206.732 154.2C206.879 154.155 207.035 154.134 207.192 154.141C207.49 154.152 207.771 154.257 207.977 154.434C208.183 154.61 208.298 154.845 208.298 155.089C208.298 155.334 208.183 155.568 207.977 155.745C207.771 155.922 207.49 156.027 207.192 156.038ZM208.65 148.74C208.4 150.149 208.197 151.627 207.685 152.99C207.57 153.32 206.812 153.32 206.685 152.99C206.321 151.963 206.044 150.916 205.855 149.858C205.695 149.09 205.147 147.842 205.672 147.097C206.135 146.427 207.44 146.347 208.19 146.687C209.125 147.121 208.75 148.04 208.65 148.74Z" fill="#547373"/>
<path d="M215.607 117.756C215.223 120.468 213.852 123.023 211.672 125.09C209.491 127.156 206.603 128.637 203.381 129.342C200.159 130.047 196.753 129.942 193.605 129.041C190.457 128.14 187.713 126.485 185.728 124.291C183.744 122.097 182.611 119.464 182.476 116.736C182.342 114.008 183.213 111.309 184.975 108.992C186.738 106.674 189.311 104.843 192.36 103.738C195.409 102.633 198.794 102.304 202.075 102.794C202.219 102.817 202.356 102.863 202.477 102.931C202.599 102.999 202.702 103.086 202.78 103.188C202.859 103.29 202.911 103.403 202.934 103.522C202.956 103.641 202.949 103.763 202.912 103.879L202.585 104.925L199.65 114.309C199.603 114.458 199.605 114.615 199.656 114.764C199.706 114.913 199.804 115.048 199.939 115.156C200.074 115.264 200.241 115.341 200.423 115.38C200.606 115.418 200.798 115.417 200.98 115.375L212.372 112.767L213.93 112.411C214.068 112.379 214.214 112.37 214.357 112.385C214.499 112.4 214.637 112.438 214.762 112.498C214.886 112.557 214.995 112.636 215.081 112.731C215.168 112.825 215.23 112.933 215.265 113.048C215.713 114.589 215.829 116.182 215.607 117.756Z" fill="white"/>
<path d="M215.999 108.086C216.053 108.2 216.077 108.322 216.07 108.445C216.062 108.567 216.023 108.687 215.956 108.797C215.888 108.906 215.793 109.002 215.677 109.08C215.561 109.157 215.426 109.214 215.282 109.246L214.209 109.492L204.932 111.615C204.75 111.656 204.558 111.658 204.376 111.619C204.193 111.581 204.026 111.504 203.891 111.396C203.756 111.288 203.659 111.152 203.608 111.004C203.557 110.855 203.555 110.698 203.602 110.548L205.999 102.909L206.229 102.176C206.266 102.059 206.331 101.95 206.421 101.855C206.511 101.76 206.623 101.681 206.752 101.624C206.881 101.566 207.023 101.531 207.169 101.52C207.315 101.509 207.463 101.524 207.602 101.562C209.489 102.095 211.215 102.953 212.664 104.078C214.112 105.204 215.25 106.57 215.999 108.086Z" fill="white"/>
<path d="M198.86 84.8348C201.384 84.8348 203.43 83.1595 203.43 81.0928C203.43 79.0262 201.384 77.3507 198.86 77.3507C196.336 77.3507 194.29 79.0262 194.29 81.0928C194.29 83.1595 196.336 84.8348 198.86 84.8348Z" fill="#D7E8F0"/>
<path d="M215.718 89.363H182.45V90.1123H215.718V89.363Z" fill="#D7E8F0"/>
<path d="M215.718 92.1348H182.45V92.884H215.718V92.1348Z" fill="#D7E8F0"/>
<path d="M215.718 94.6609H182.45V95.4101H215.718V94.6609Z" fill="#D7E8F0"/>
<path d="M165.432 105.015H139.372V105.764H165.432V105.015Z" fill="#D7E8F0"/>
<path d="M165.432 108.038H139.372V108.788H165.432V108.038Z" fill="#D7E8F0"/>
<path d="M165.432 111.06H139.372V111.809H165.432V111.06Z" fill="#D7E8F0"/>
<path d="M165.432 114.084H139.372V114.833H165.432V114.084Z" fill="#D7E8F0"/>
<path d="M165.432 117.107H139.372V117.856H165.432V117.107Z" fill="#D7E8F0"/>
<path d="M135.798 83.7254C135.798 83.7254 143.718 93.9382 152.743 97.1481C161.768 100.358 164.588 101.776 168.04 100.628C171.493 99.4797 178.12 97.8707 182.79 86.5033C187.46 75.1358 189.685 69.1522 189.85 66.3989C190.015 63.6456 180.73 65.9076 180.73 65.9076C180.73 65.9076 175.73 77.9751 164.775 83.361L149.173 69.8667L135.798 83.7254Z" fill="white"/>
<path d="M126.543 99.4204L132.918 100.837C132.918 100.837 125.515 109.195 132.098 117.946C138.68 126.698 152.235 144.354 152.235 144.354L178.18 178.13L153.915 175.361L135.798 159.111L126.548 151.559L114.955 121.928L126.543 99.4204Z" fill="white"/>
<path d="M22.4527 142.614C23.0259 142.867 23.6895 142.949 24.3286 142.845C24.9677 142.741 25.5423 142.457 25.9528 142.042L35.3877 132.571L43.0002 124.747L36.7677 121.881C36.1222 121.582 35.3583 121.506 34.644 121.668C33.9295 121.83 33.323 122.218 32.9577 122.747L21.3427 139.451C21.1577 139.717 21.0396 140.011 20.9953 140.316C20.951 140.62 20.9815 140.929 21.0849 141.223C21.1883 141.518 21.3626 141.793 21.5975 142.032C21.8324 142.27 22.1231 142.468 22.4527 142.614Z" fill="#2E2E2E"/>
<path d="M166.067 187.291L173.92 193.616C174.597 194.164 175.511 194.471 176.462 194.472H196.1C196.709 194.474 197.306 194.331 197.817 194.06C198.328 193.789 198.732 193.402 198.98 192.946C199.227 192.49 199.307 191.985 199.21 191.493C199.113 191.001 198.842 190.542 198.432 190.173C197.916 189.701 197.203 189.403 196.432 189.338L185.54 188.423L166.067 187.291Z" fill="#2E2E2E"/>
<path d="M94.358 108.176C94.358 108.176 109.545 111.635 119.67 112.667C129.795 113.699 129.085 110.26 129.085 110.26L130.323 105.916C133.573 101.58 135.46 92.3558 135.46 92.3558L136.765 85.1399L138.67 87.885L144.828 92.9638L144.903 93.0129C144.715 90.5871 144.858 87.1788 145.548 82.536C147.138 71.7889 152.403 73.0355 152.403 73.0355L151.63 72.3416C147.993 67.3856 136.38 62.1471 132.67 60.8943C128.96 59.6415 130.548 61.4163 131.02 62.7367C131.493 64.0571 130.143 67.7725 124.735 65.881C119.328 63.9895 119.055 59.8749 119.055 59.8749H116.543C101.13 61.3918 93.293 68.1225 93.293 68.1225C109.665 71.2853 105.908 82.6568 105.908 82.6568L104.423 83.7683C98.6105 87.8952 98.2055 91.8748 98.708 93.5329C99.2105 95.191 102.795 97.4223 109.268 98.7161C115.74 100.01 116.918 100.012 118.38 97.7212C119.843 95.4305 121.548 95.148 123.88 94.8041C126.213 94.4602 129.07 95.8174 128.418 96.886C127.765 97.9546 127.293 97.0211 128.918 99.9075C130.543 102.794 129.788 104.262 125.418 106.921C121.048 109.58 101.618 108.088 101.618 108.088C92.3255 105.983 94.358 108.176 94.358 108.176Z" fill="#2E2E2E"/>
<path d="M129.88 59.9425V60.3785V60.489C134.224 61.3781 138.315 62.9507 141.925 65.1195C142.51 65.4696 143.08 65.8258 143.643 66.2004C143.658 64.6958 143.5 63.1851 142.908 61.7603C142.428 60.5378 141.523 59.4559 140.305 58.6467C139.233 57.9466 137.965 57.4983 136.69 57.093C135.415 56.6876 134.163 56.3314 132.993 55.7849C132.007 55.3433 131.146 54.7364 130.465 54.0039C130.227 53.739 130.078 53.4273 130.034 53.1001C129.99 52.773 130.053 52.4422 130.215 52.1411C130.1 52.1347 129.987 52.1161 129.878 52.0858L129.88 59.9425Z" fill="#547373"/>
<path d="M129.88 59.9425V60.3785V60.489C134.224 61.3781 138.315 62.9507 141.925 65.1195C142.51 65.4696 143.08 65.8258 143.643 66.2004C143.658 64.6958 143.5 63.1851 142.908 61.7603C142.428 60.5378 141.523 59.4559 140.305 58.6467C139.233 57.9466 137.965 57.4983 136.69 57.093C135.415 56.6876 134.163 56.3314 132.993 55.7849C132.007 55.3433 131.146 54.7364 130.465 54.0039C130.227 53.739 130.078 53.4273 130.034 53.1001C129.99 52.773 130.053 52.4422 130.215 52.1411C130.1 52.1347 129.987 52.1161 129.878 52.0858L129.88 59.9425Z" fill="#547373"/>
<path d="M69.8624 93.928C71.4946 94.8844 73.3091 95.613 75.2324 96.0836C76.0596 96.2924 76.8999 96.4646 77.7499 96.5995C74.3924 90.1205 76.9049 81.5965 87.4999 72.5074C89.3139 70.9486 91.2451 69.4841 93.2824 68.1226C96.5749 65.9302 99.4999 64.2966 102.95 62.9824C104.494 62.3988 106.081 61.8923 107.7 61.4655C110.571 60.6829 113.535 60.1499 116.542 59.8749C117.225 59.8074 117.9 59.7583 118.582 59.7276C118.416 58.7677 118.449 57.7918 118.68 56.8412C119.31 54.2312 120.407 52.7306 122.402 50.6733C123.652 49.3775 125.605 46.2824 123.002 45.2138C121.36 44.5444 121.21 43.1667 121.982 42.3479C122.635 41.6355 123.955 41.31 125.582 42.1432C126.707 42.7327 128.042 42.7696 129.332 42.4809C130.334 42.0029 131.203 41.3587 131.882 40.5894C133.772 38.3725 133.84 35.0132 130.882 33.3858C129.27 32.4953 127.215 32.2804 125.287 32.4523C124.424 32.5299 123.574 32.6822 122.75 32.9068C122.746 32.9055 122.742 32.9047 122.739 32.9047C122.735 32.9047 122.731 32.9055 122.727 32.9068C119.227 34.4482 116.74 37.2977 115.54 40.5096C114.835 42.4072 114.04 44.2865 113.11 46.1288C112.345 47.6396 111.812 49.4758 110.11 50.5075C109.398 50.9384 108.591 51.2514 107.732 51.4287C104.515 53.0991 100.052 52.1349 96.5349 51.7788C93.7226 51.4639 90.8591 51.6995 88.1799 52.4666C85.1799 53.7091 82.5999 55.6928 80.5074 58.2721C77.0499 62.5402 80.7099 68.6937 74.9274 72.0591C73.1774 73.0724 71.1774 73.6866 69.2649 74.4726C66.5349 75.6088 64.3299 77.2239 63.5149 79.7111C61.9049 84.7285 64.7699 90.9004 69.8624 93.928Z" fill="#547373"/>
<path d="M211.25 194.472H74.4404" stroke="black" stroke-width="1.197" stroke-miterlimit="10"/>
<path d="M134.897 38.5689C135.249 39.1655 135.549 39.781 135.797 40.4113C136.157 41.4349 135.767 42.0694 136.315 43.0459C136.502 43.3837 136.772 43.9548 137.065 44.5321C137.147 44.397 137.222 44.2864 137.267 44.2005C139.412 40.2885 136.592 38.4031 135.235 37.7583C135.148 38.0355 135.036 38.3065 134.897 38.5689Z" fill="#547373"/>
<path d="M134.897 38.5689C135.249 39.1655 135.549 39.781 135.797 40.4113C136.157 41.4349 135.767 42.0694 136.315 43.0459C136.502 43.3837 136.772 43.9548 137.065 44.5321C137.147 44.397 137.222 44.2864 137.267 44.2005C139.412 40.2885 136.592 38.4031 135.235 37.7583C135.148 38.0355 135.036 38.3065 134.897 38.5689Z" fill="#547373"/>
<path d="M87.3677 104.565C86.0577 113.023 87.1177 127.697 108.273 138.923C112.08 140.943 115.508 143.797 118.865 146.264C128.022 153.04 136.734 160.209 144.963 167.742C150 172.315 155.143 177.121 160.25 181.752C162.868 184.118 165.515 186.463 168.19 188.786C170.16 190.487 173.285 194.47 176.453 194.47H195.918C197.668 194.47 199.258 193.297 199.233 191.858C199.219 191.236 198.931 190.64 198.423 190.178C197.907 189.705 197.193 189.407 196.423 189.342L185.53 188.427L132.903 119.895C130.188 116.358 127.78 110.536 129.88 106.722C137.88 92.2168 137.193 78.1575 137.193 78.1575" stroke="black" stroke-width="1.197" stroke-miterlimit="10"/>
<path d="M114.615 143.332C112.32 149.934 108.615 156.638 105.555 160.859C104.446 162.4 102.984 163.751 101.25 164.839C94.98 168.771 86.1175 168.351 80.105 164.161L50.2025 143.32L35.39 132.571L25.955 142.042C25.5087 142.487 24.8754 142.778 24.1797 142.859C23.4841 142.939 22.7769 142.804 22.1976 142.478C21.6183 142.153 21.2091 141.661 21.0507 141.101C20.8924 140.54 20.9965 139.952 21.3424 139.451L32.96 122.751C33.3252 122.222 33.9317 121.834 34.646 121.672C35.3605 121.51 36.1242 121.586 36.77 121.885L43.0025 124.751L78.7125 141.127C79.3065 141.399 79.971 141.552 80.6512 141.573C81.3315 141.594 82.0082 141.483 82.6255 141.247C83.2427 141.012 83.783 140.661 84.202 140.221C84.6207 139.782 84.9062 139.267 85.035 138.72L89.265 120.558" stroke="black" stroke-width="1.197" stroke-miterlimit="10"/>
<path d="M129.88 50.8697V59.8769V60.3129V60.4234C131.013 61.7745 131.583 63.6987 130.503 65.1317C129.055 67.0539 125.86 66.7346 123.835 65.6598C123.239 65.3442 122.67 64.9954 122.133 64.6158C120.33 63.3335 119.164 61.5553 118.853 59.6169C118.686 58.657 118.719 57.6812 118.95 56.7305C119.585 54.1225 120.68 52.6241 122.678 50.5606C123.928 49.271 125.878 46.1717 123.273 45.1031C120.22 43.8564 122.335 40.2086 125.853 42.0325C128.583 43.4511 132.505 41.6825 134.125 39.7807C136.015 37.5637 136.083 34.2045 133.125 32.5771C131.513 31.6866 129.458 31.4716 127.53 31.6436C121.658 32.1717 117.478 35.9302 115.805 40.401C115.1 42.2986 114.305 44.1778 113.375 46.0202C112.61 47.5309 112.078 49.3672 110.375 50.3989C107.125 52.3825 102.44 51.3446 98.7726 50.9762C91.1376 50.2085 84.9801 52.9782 80.7726 58.1635C77.3151 62.4316 80.9751 68.5851 75.1926 71.9505C73.4426 72.9638 71.4426 73.5779 69.5301 74.364C66.8001 75.5001 64.5951 77.1153 63.7926 79.6025C62.1726 84.6137 65.0426 90.7856 70.1301 93.8133C72.4626 95.2012 75.1926 96.0302 78.0276 96.4847" stroke="black" stroke-width="1.197" stroke-miterlimit="10"/>
<path d="M144.952 67.3673C144.967 67.2526 144.972 67.1421 144.979 67.0336C145.107 65.0541 145.092 63.0029 144.304 61.0971C143.821 59.8758 142.916 58.7949 141.699 57.9855C140.624 57.2875 139.357 56.8351 138.087 56.4297C136.817 56.0244 135.557 55.6723 134.389 55.1237C133.401 54.684 132.539 54.076 131.862 53.3407C131.625 53.0766 131.476 52.7659 131.433 52.4398C131.389 52.1139 131.451 51.7841 131.612 51.484" stroke="black" stroke-width="1.197" stroke-miterlimit="10"/>
<path d="M127.513 48.8392C128.398 49.875 129.598 50.9927 131.11 51.396C133.068 51.918 134.385 50.5567 135.088 49.2322C135.508 48.4441 135.798 47.6048 136.138 46.7901C136.248 46.5219 136.315 46.3929 136.69 46.3806C137.065 46.3684 137.46 46.4298 137.845 46.4298C137.872 46.4292 137.899 46.4226 137.923 46.4109C137.946 46.3993 137.965 46.3827 137.978 46.3628C137.991 46.343 137.997 46.3209 137.996 46.2983C137.995 46.276 137.987 46.2541 137.973 46.2353C137.455 45.5905 136.683 43.832 136.293 43.1278C135.75 42.1514 136.143 41.5188 135.778 40.4932C135.529 39.8636 135.23 39.248 134.883 38.6509" stroke="black" stroke-width="1.197" stroke-miterlimit="10"/>
<path d="M135.46 36.7572C135.46 36.7572 140.797 38.4338 138.04 43.4716C137.87 43.7766 137.452 44.4133 137.255 44.6999" stroke="black" stroke-width="1.197" stroke-miterlimit="10"/>
<path d="M193.032 22.3929C193.032 22.3929 193.062 22.4051 193.122 22.4233L193.032 22.3929Z" fill="#547373"/>
<path d="M135.165 49.0868C134.738 49.1349 134.304 49.0536 133.945 48.8585C133.585 48.6632 133.325 48.3674 133.213 48.0264" stroke="black" stroke-width="1.197" stroke-miterlimit="10"/>
<path d="M136.067 42.3397C134.962 41.6028 133.75 42.5444 133.01 43.2282" stroke="black" stroke-width="1.197" stroke-miterlimit="10"/>
<path d="M118.86 59.619C115.154 59.811 111.494 60.3938 107.97 61.3529C102.22 62.8964 98.2599 64.8882 93.5624 68.01C91.5257 69.3742 89.5944 70.8407 87.7799 72.401C77.1749 81.49 74.6674 90.0181 78.0299 96.4951C80.7624 101.772 87.0624 105.046 93.5174 106.714C97.7399 107.803 102.14 108.272 106.555 108.376C111.817 108.499 117.125 108.335 122.305 107.517C124.487 107.173 127.002 106.89 128.305 105.23C129.607 103.57 129.717 101.33 128.75 99.5513C127.842 97.8953 125.392 96.1143 123.177 97.4142C122.932 97.5593 122.73 97.7483 122.586 97.9667C122.443 98.1853 122.362 98.4275 122.35 98.6752" stroke="black" stroke-width="1.197" stroke-miterlimit="10"/>
<path d="M114.857 70.5708C115.132 77.3589 108.107 81.144 108.107 81.144C105.777 82.6895 103.512 84.3497 101.607 86.2514C100.389 87.4653 99.2595 88.8246 98.6995 90.3456C98.281 91.3828 98.288 92.5034 98.7195 93.5369C99.1967 94.4927 99.9855 95.3226 100.999 95.9361C102.894 97.15 105.199 97.7785 107.484 98.323C110.002 98.913 112.567 99.3603 115.159 99.6618C116.659 99.8378 117.292 99.4571 117.977 98.3947C118.597 97.4325 119.104 96.3189 120.252 95.6905C121.842 94.8164 123.977 94.6137 125.817 94.974C128.654 95.5267 129.379 97.3691 127.067 97.7416" stroke="black" stroke-width="1.197" stroke-miterlimit="10"/>
<path d="M113.125 116.624L70.0129 108.094L59.7529 142.861L101.67 151.393L103.015 150.888L113.125 116.624Z" fill="white"/>
<path d="M93.2321 111.736C95.2771 100.014 99.7096 97.1154 102.595 96.536L102.405 96.4501C93.6946 93.6742 87.6546 107.408 86.3721 110.62L93.2321 111.736Z" fill="#D7E8F0"/>
<path d="M93.1122 112.665C95.1572 100.943 99.7097 97.1071 102.595 96.5359L102.405 96.4499C93.6947 93.6741 87.4047 108.069 86.1172 111.279L93.1122 112.665Z" fill="#D7E8F0"/>
<path d="M102.405 96.4501C92.5547 93.3139 86.1172 111.279 86.1172 111.279L93.1172 112.665C97.1847 94.6507 105.912 97.926 105.912 97.926C105.605 97.8502 102.405 96.4501 102.405 96.4501Z" stroke="black" stroke-width="1.197" stroke-miterlimit="10"/>
<path d="M69.5322 109.751L59.7539 142.872L93.7666 149.605L103.545 116.483L69.5322 109.751Z" fill="#547373"/>
<path d="M70.0514 107.997L59.7549 142.873L95.5681 149.962L105.865 115.086L70.0514 107.997Z" fill="white"/>
<path d="M70.2193 110.65L61.3516 140.688C61.1001 141.539 61.7396 142.396 62.7796 142.602L93.0258 148.589C94.0658 148.795 95.1128 148.272 95.3643 147.42L104.232 117.383C104.484 116.531 103.844 115.674 102.804 115.468L72.5578 109.481C71.5178 109.275 70.4708 109.798 70.2193 110.65Z" fill="#547373"/>
<path d="M70.0189 108.106L59.7549 142.873L95.5681 149.962L105.832 115.195L70.0189 108.106Z" stroke="black" stroke-width="1.197" stroke-miterlimit="10"/>
<path d="M105.983 115.222L95.7188 149.99L102.868 151.405L113.132 116.638L105.983 115.222Z" fill="white"/>
<path d="M105.983 115.222L95.7188 149.99L102.868 151.405L113.132 116.638L105.983 115.222Z" stroke="black" stroke-width="1.197" stroke-miterlimit="10"/>
<path d="M102.865 151.393L100.562 146.544L95.7148 149.979" stroke="black" stroke-width="1.197" stroke-miterlimit="10"/>
<path d="M109.552 115.918L100.562 146.544" stroke="black" stroke-width="1.197" stroke-miterlimit="10"/>
<path d="M188.418 59.5187C188.283 59.5371 188.168 59.5555 188.02 59.5801C186.668 59.7733 185.386 60.2143 184.27 60.8697C183.048 61.6435 181.938 62.9885 181.398 64.1451C180.581 65.9015 179.684 67.6292 178.705 69.3283C177.228 71.9475 175.472 74.4545 173.455 76.8206C171.363 79.2279 168.85 81.668 165.685 83.1665C165.288 83.363 164.87 83.5297 164.435 83.6639C163.903 83.8482 156.41 76.7899 155.585 76.0038C152.278 72.8533 148.858 69.7336 144.98 67.0376C143.998 66.3498 142.98 65.6865 141.935 65.0663C138.323 62.8955 134.23 61.3207 129.883 60.4296" stroke="black" stroke-width="1.197" stroke-miterlimit="10"/>
<path d="M201.897 59.2609C201.912 59.2639 201.927 59.2639 201.942 59.2609C205.407 59.5925 204.05 62.6508 201.612 62.5526C198.92 62.442 196.235 62.5526 193.55 62.5894C192.809 62.5696 192.073 62.6805 191.39 62.9149C190.04 63.443 189.912 64.6222 189.71 65.6907C189.44 67.0909 189.132 68.4911 188.77 69.879C188.065 72.6303 187.195 75.3447 186.197 78.0346C185.552 79.7787 184.84 81.5146 184.09 83.2321C181.9 88.2925 179.14 93.6599 174.497 97.5617C171.932 99.7234 168.572 101.32 164.785 101.087C159.452 100.761 154.322 98.5688 149.8 96.0755C149.78 96.0648 149.763 96.0525 149.747 96.0386C148.059 95.1082 146.441 94.0951 144.902 93.0049C144.902 93.0049 138.67 88.4604 136.765 85.1318" stroke="black" stroke-width="1.197" stroke-miterlimit="10"/>
<path d="M211.75 56.5095V56.7961C211.75 58.7736 209.805 59.1134 208.125 59.1461L175.608 59.7603C174.183 59.791 172.985 58.7695 172.955 57.4941V57.4409C172.955 56.1902 174.075 55.1502 175.483 55.1216C175.483 55.1216 193.673 54.7019 207.76 54.3846C208.028 55.0827 208.683 55.6231 209.495 56.0448C210.174 56.3791 210.959 56.5408 211.75 56.5095Z" stroke="black" stroke-width="1.197" stroke-miterlimit="10"/>
<path d="M229.025 28.3357C229.025 28.6614 228.93 28.9828 228.75 29.2733L214.217 53.6846C214.047 53.9667 213.803 54.2153 213.504 54.413C213.205 54.611 212.858 54.7534 212.485 54.831C211.884 54.9555 211.249 54.9016 210.692 54.6795C210.247 54.5002 209.872 54.2224 209.61 53.8777C209.348 53.5328 209.209 53.1348 209.21 52.7287C209.212 52.4038 209.303 52.0836 209.475 51.7911L224.015 27.3777C224.279 26.9417 224.715 26.5916 225.253 26.384C225.791 26.1767 226.398 26.1241 226.977 26.2346C227.556 26.3454 228.072 26.6129 228.442 26.9939C228.812 27.3748 229.014 27.8469 229.015 28.3337L229.025 28.3357Z" stroke="black" stroke-width="1.197" stroke-miterlimit="10"/>
<path d="M189.48 23.3142C193.89 23.3142 197.465 20.3868 197.465 16.7758C197.465 13.1647 193.89 10.2374 189.48 10.2374C185.07 10.2374 181.495 13.1647 181.495 16.7758C181.495 20.3868 185.07 23.3142 189.48 23.3142Z" fill="#547373"/>
<path d="M186.943 19.0255C186.678 18.9443 186.43 18.8304 186.208 18.6877C185.816 18.4458 185.546 18.0943 185.451 17.7002C185.355 17.3062 185.439 16.897 185.688 16.5506C185.85 16.3256 186.074 16.1345 186.341 15.9925C186.609 15.8503 186.913 15.7611 187.23 15.7317C187.054 15.3937 187.018 15.018 187.126 14.6615C187.234 14.305 187.481 13.987 187.83 13.7557C188.179 13.5244 188.61 13.3924 189.058 13.3796C189.506 13.3668 189.948 13.4738 190.315 13.6847C191.088 14.1248 191.623 14.9006 191.95 15.6089C192.119 15.9808 192.243 16.3655 192.32 16.7573C192.358 16.962 192.613 18.0879 192.413 18.2026C191.093 18.9518 188.635 19.5536 186.943 19.0255Z" fill="white"/>
<g opacity="0.72">
<path opacity="0.72" d="M182.743 36.9538C185.17 36.9538 187.138 35.3427 187.138 33.355C187.138 31.3675 185.17 29.7562 182.743 29.7562C180.315 29.7562 178.348 31.3675 178.348 33.355C178.348 35.3427 180.315 36.9538 182.743 36.9538Z" fill="#547373"/>
<path opacity="0.72" d="M183.612 34.8822C183.506 34.9764 183.383 35.0564 183.247 35.1197C183.014 35.231 182.74 35.2691 182.475 35.2265C182.211 35.1839 181.974 35.0636 181.81 34.8883C181.702 34.7735 181.629 34.6398 181.595 34.4976C181.562 34.3555 181.57 34.2089 181.617 34.0695C181.371 34.0707 181.131 34.0067 180.934 33.8869C180.736 33.767 180.591 33.5979 180.52 33.4048C180.45 33.2116 180.458 33.005 180.543 32.8161C180.628 32.6269 180.786 32.4656 180.992 32.3561C181.461 32.1436 181.995 32.047 182.53 32.0777C182.797 32.0839 183.063 32.1127 183.322 32.1637C183.455 32.1883 184.21 32.3193 184.24 32.4257C184.432 33.1361 184.295 34.2886 183.612 34.8822Z" fill="white"/>
</g>
<path d="M207.484 25.501L203.171 27.3837C201.607 28.0664 201.015 29.6586 201.849 30.9395L204.148 34.4711C204.982 35.7522 206.926 36.2371 208.49 35.5542L212.803 33.6717C214.368 32.9888 214.96 31.3968 214.126 30.1157L211.827 26.5841C210.993 25.3033 209.049 24.8183 207.484 25.501Z" fill="#547373"/>
<path d="M209.212 34.5505L212.335 33.1872C212.986 32.901 213.472 32.4156 213.688 31.8369C213.903 31.258 213.83 30.633 213.485 30.0981L211.485 27.0275C211.136 26.4941 210.543 26.0955 209.836 25.919C209.129 25.7426 208.365 25.8026 207.712 26.0859L207.502 26.178C206.722 27.0644 205.685 28.5813 207.252 29.0582C209.502 29.7481 208.845 30.7819 208.002 32.1063C207.287 33.2179 207.105 34.5178 209.212 34.5505Z" fill="white"/>
<path d="M204.35 30.8331C205.002 30.8331 205.53 30.4003 205.53 29.8669C205.53 29.3332 205.002 28.9006 204.35 28.9006C203.698 28.9006 203.17 29.3332 203.17 29.8669C203.17 30.4003 203.698 30.8331 204.35 30.8331Z" fill="white"/>
<path d="M189.815 46.9599C190.253 47.1339 190.718 47.2553 191.198 47.3202C192.079 47.4308 192.979 47.3523 193.812 47.0926C194.644 46.8328 195.38 46.4007 195.948 45.8381C196.385 45.3919 196.713 44.833 197.173 44.3827C197.488 44.0541 197.909 43.8044 198.388 43.6621C198.553 43.6334 198.706 43.5722 198.835 43.484C199.15 43.2179 198.615 42.9927 198.508 42.7777C198.347 42.431 198.347 42.0478 198.508 41.701C198.918 40.7894 198.93 39.7894 198.541 38.8715C198.151 37.9536 197.385 37.1747 196.373 36.6676C195.361 36.1604 194.165 35.9565 192.99 36.0904C191.815 36.2244 190.733 36.6881 189.928 37.4021C189.133 38.1043 188.655 39.0009 188.16 39.8586C187.72 40.6222 187.253 41.3816 187.01 42.2025C186.448 44.1472 187.718 46.1227 189.815 46.9599Z" fill="#547373"/>
<path d="M194.28 40.051C194.895 40.051 195.393 39.6432 195.393 39.1401C195.393 38.6369 194.895 38.2291 194.28 38.2291C193.666 38.2291 193.168 38.6369 193.168 39.1401C193.168 39.6432 193.666 40.051 194.28 40.051Z" fill="white"/>
<path d="M192.822 42.5648C193.437 42.5648 193.935 42.157 193.935 41.6539C193.935 41.1509 193.437 40.7429 192.822 40.7429C192.208 40.7429 191.71 41.1509 191.71 41.6539C191.71 42.157 192.208 42.5648 192.822 42.5648Z" fill="white"/>
<path d="M191.455 44.923C192.07 44.923 192.568 44.515 192.568 44.012C192.568 43.5089 192.07 43.1011 191.455 43.1011C190.841 43.1011 190.343 43.5089 190.343 44.012C190.343 44.515 190.841 44.923 191.455 44.923Z" fill="white"/>
<g opacity="0.54">
<path opacity="0.54" d="M164.75 50.6713C165.088 50.6346 165.423 50.5779 165.75 50.5014L169.515 49.6334C170.668 49.3673 171.88 49.0725 172.698 48.354C174.213 47.0213 173.723 44.9047 173.135 43.1483C172.657 41.7112 172.178 40.2742 171.698 38.8371C171.368 37.8463 171.028 36.8392 170.37 35.9712C169.713 35.1033 168.673 34.3581 167.433 34.1984C166.52 34.0818 165.595 34.2824 164.703 34.4809L161.09 35.2998C159.905 35.5638 158.655 35.8607 157.825 36.6038C156.35 37.9241 156.825 39.9958 157.39 41.7215L158.833 46.1329C159.718 48.7839 161.375 51.0193 164.75 50.6713Z" fill="#547373"/>
<path opacity="0.54" d="M164.501 44.6549C164.724 44.8332 165 44.9601 165.302 45.0232C165.604 45.0862 165.921 45.0829 166.221 45.014C166.521 44.9448 166.793 44.8123 167.011 44.6295C167.229 44.4469 167.384 44.2205 167.461 43.9732L167.881 42.6263L168.298 41.2772C168.375 41.0299 168.371 40.7704 168.286 40.5249C168.202 40.2793 168.039 40.0564 167.816 39.8785C167.593 39.7004 167.316 39.5737 167.014 39.5108C166.712 39.4482 166.395 39.4514 166.096 39.5208L164.463 39.8975L162.828 40.2742C162.529 40.344 162.257 40.4772 162.04 40.6602C161.824 40.8433 161.67 41.0699 161.594 41.3171C161.518 41.5642 161.522 41.8236 161.607 42.0688C161.692 42.3141 161.855 42.5366 162.078 42.7143L163.296 43.6846L164.501 44.6549Z" fill="white"/>
</g>
</svg>
